<svg version="1.1" viewBox="0.0 0.0 283.3884514435696 114.07086614173228" fill="none" stroke="none" stroke-linecap="square" stroke-miterlimit="10" xmlns:xlink="http://www.w3.org/1999/xlink" xmlns="http://www.w3.org/2000/svg"><clipPath id="p.0"><path d="m0 0l283.38846 0l0 114.07087l-283.38846 0l0 -114.07087z" clip-rule="nonzero"/></clipPath><g clip-path="url(#p.0)"><path fill="#000000" fill-opacity="0.0" d="m0 0l283.38846 0l0 114.07087l-283.38846 0z" fill-rule="evenodd"/><path fill="#000000" fill-opacity="0.0" d="m-23.467192 -3.1325133l314.14172 0l0 198.67715l-314.14172 0z" fill-rule="evenodd"/><path stroke="#ffffff" stroke-width="1.0" stroke-linejoin="round" stroke-linecap="butt" d="m-23.467192 -3.1325133l314.14172 0l0 198.67715l-314.14172 0z" fill-rule="evenodd"/><path fill="#ffffff" d="m289.62207 -3.127264l52.724396 0l0 198.67715l-52.724396 0z" fill-rule="evenodd"/><path stroke="#ffffff" stroke-width="1.0" stroke-linejoin="round" stroke-linecap="butt" d="m289.62207 -3.127264l52.724396 0l0 198.67715l-52.724396 0z" fill-rule="evenodd"/><path fill="#000000" fill-opacity="0.0" d="m336.51443 -0.033119947l-42.141724 0l0 186.5512l42.141724 0z" fill-rule="evenodd"/><path fill="#000000" d="m325.3102 29.707466l3.546875 0.90625q-1.109375 4.34375 -4.0 6.640625q-2.890625 2.28125 -7.0625 2.28125q-4.328125 0 -7.03125 -1.75q-2.703125 -1.765625 -4.125 -5.09375q-1.40625 -3.34375 -1.40625 -7.171875q0 -4.171875 1.59375 -7.28125q1.59375 -3.109376 4.53125 -4.718751q2.953125 -1.609375 6.484375 -1.609375q4.015625 0 6.75 2.046875q2.734375 2.03125 3.8125 5.734376l-3.484375 0.8125q-0.9375 -2.90625 -2.703125 -4.234375q-1.765625 -1.343751 -4.4375 -1.343751q-3.09375 0 -5.15625 1.484376q-2.0625 1.46875 -2.90625 3.96875q-0.84375 2.484375 -0.84375 5.125q0 3.40625 0.984375 5.953125q1.0 2.546875 3.09375 3.8125q2.109375 1.25 4.546875 1.25q2.96875 0 5.03125 -1.71875q2.0625 -1.71875 2.78125 -5.09375z" fill-rule="nonzero"/><path fill="#000000" d="m307.79788 84.082466l0 -26.71875l3.53125 0l0 23.5625l13.15625 0l0 3.15625l-16.6875 0z" fill-rule="nonzero"/><path fill="#000000" d="m323.77896 102.363716l3.546875 0l0 15.4375q0 4.03125 -0.921875 6.40625q-0.90625 2.359375 -3.28125 3.8437424q-2.375 1.484375 -6.25 1.484375q-3.75 0 -6.140625 -1.28125q-2.390625 -1.2968674 -3.40625 -3.7499924q-1.015625 -2.453125 -1.015625 -6.703125l0 -15.4375l3.53125 0l0 15.421875q0 3.484375 0.640625 5.140625q0.65625 1.640625 2.234375 2.53125q1.578125 0.890625 3.859375 0.890625q3.890625 0 5.546875 -1.765625q1.65625 -1.765625 1.65625 -6.796875l0 -15.421875z" fill-rule="nonzero"/><path fill="#000000" d="m306.1071 174.08246l0 -26.71875l10.03125 0q3.0625 0 4.90625 0.8125q1.84375 0.8125 2.890625 2.5q1.046875 1.6875 1.046875 3.515625q0 1.71875 -0.9375 3.234375q-0.921875 1.515625 -2.796875 2.4375q2.421875 0.71875 3.71875 2.4375q1.3125 1.703125 1.3125 4.03125q0 1.875 -0.796875 3.5q-0.78125 1.609375 -1.953125 2.484375q-1.171875 0.875 -2.9375 1.328125q-1.75 0.4375 -4.296875 0.4375l-10.1875 0zm3.53125 -15.5l5.78125 0q2.359375 0 3.375 -0.296875q1.34375 -0.40625 2.03125 -1.328125q0.6875 -0.9375 0.6875 -2.34375q0 -1.328125 -0.640625 -2.328125q-0.640625 -1.015625 -1.828125 -1.390625q-1.1875 -0.375 -4.0625 -0.375l-5.34375 0l0 8.0625zm0 12.34375l6.65625 0q1.71875 0 2.40625 -0.125q1.21875 -0.21875 2.03125 -0.71875q0.828125 -0.515625 1.359375 -1.484375q0.53125 -0.984375 0.53125 -2.265625q0 -1.484375 -0.765625 -2.59375q-0.765625 -1.109375 -2.125 -1.546875q-1.359375 -0.453125 -3.90625 -0.453125l-6.1875 0l0 9.1875z" fill-rule="nonzero"/><path fill="#ffffff" d="m194.8136 3.8240817l0 0c0.8008423 -0.6834326 2.0987244 -0.6828034 2.8988953 0.0014054775l5.795212 4.955331l0 0c0.38426208 0.3285694 0.6000061 0.7740555 0.5997925 1.2384586c-2.2888184E-4 0.4644022 -0.2164154 0.90968037 -0.60098267 1.2378759l-58.328262 49.77704c-0.800827 0.68343353 -2.098709 0.6828041 -2.8988953 -0.0014038086l-5.795212 -4.95533c-0.8001709 -0.68421173 -0.79963684 -1.7929039 0.0012054443 -2.4763374z" fill-rule="evenodd"/><path fill="#ffffff" d="m206.25043 103.415825l0 0c0.75398254 0.6433945 0.7541504 1.6867218 3.5095215E-4 2.3303452l-5.459259 4.6613693l0 0c-0.36198425 0.3090744 -0.8529663 0.48275757 -1.3649597 0.48283386c-0.51197815 7.6293945E-5 -1.0030212 -0.17345428 -1.365097 -0.48242188l-62.11998 -53.00865c-0.75398254 -0.64339066 -0.7541504 -1.6867218 -3.5095215E-4 -2.3303452l5.459259 -4.6613693c0.7537842 -0.64361954 1.9760742 -0.64380264 2.7300568 -4.081726E-4z" fill-rule="evenodd"/><path fill="#000000" fill-opacity="0.0" d="m86.19371 25.455952l0 0c0 -3.2383957 2.6252365 -5.863634 5.863632 -5.863634l23.453835 0l0 0c1.5551376 0 3.0465698 0.61777306 4.1462173 1.7174187c1.0996475 1.0996437 1.7174149 2.5910835 1.7174149 4.1462154l0 24.020763c0 3.2383957 -2.6252365 5.863632 -5.863632 5.863632l-23.453835 0c-3.2383957 0 -5.863632 -2.6252365 -5.863632 -5.863632z" fill-rule="evenodd"/><path stroke="#ffffff" stroke-width="4.0" stroke-linejoin="round" stroke-linecap="butt" d="m86.19371 25.455952l0 0c0 -3.2383957 2.6252365 -5.863634 5.863632 -5.863634l23.453835 0l0 0c1.5551376 0 3.0465698 0.61777306 4.1462173 1.7174187c1.0996475 1.0996437 1.7174149 2.5910835 1.7174149 4.1462154l0 24.020763c0 3.2383957 -2.6252365 5.863632 -5.863632 5.863632l-23.453835 0c-3.2383957 0 -5.863632 -2.6252365 -5.863632 -5.863632z" fill-rule="evenodd"/><path fill="#ffffff" d="m94.98889 27.774181l17.6063 0l0 19.370079l-17.6063 0z" fill-rule="evenodd"/><path stroke="#ffffff" stroke-width="1.0" stroke-linejoin="round" stroke-linecap="butt" d="m94.98889 27.774181l17.6063 0l0 19.370079l-17.6063 0z" fill-rule="evenodd"/><path fill="#000000" fill-opacity="0.0" d="m103.78426 19.592318l-0.3149643 -10.047245" fill-rule="evenodd"/><path stroke="#ffffff" stroke-width="4.0" stroke-linejoin="round" stroke-linecap="butt" d="m103.78426 19.592318l-0.3149643 -10.047245" fill-rule="evenodd"/><path fill="#000000" fill-opacity="0.0" d="m113.27208 19.594494l0.25196838 -10.047243" fill-rule="evenodd"/><path stroke="#ffffff" stroke-width="4.0" stroke-linejoin="round" stroke-linecap="butt" d="m113.27208 19.594494l0.25196838 -10.047243" fill-rule="evenodd"/><path fill="#000000" fill-opacity="0.0" d="m94.14952 19.027565l0 -9.480314" fill-rule="evenodd"/><path stroke="#ffffff" stroke-width="4.0" stroke-linejoin="round" stroke-linecap="butt" d="m94.14952 19.027565l0 -9.480314" fill-rule="evenodd"/><path fill="#000000" fill-opacity="0.0" d="m110.18546 6.0669355l0 0c0 -1.9221249 1.4947357 -3.4803147 3.338585 -3.4803147l0 0c0.88544464 0 1.7346268 0.3666749 2.360733 1.0193605c0.62610626 0.65268564 0.97785187 1.5379176 0.97785187 2.4609542l0 0c0 1.9221249 -1.4947357 3.4803152 -3.338585 3.4803152l0 0c-1.8438492 0 -3.338585 -1.5581903 -3.338585 -3.4803152z" fill-rule="evenodd"/><path stroke="#ffffff" stroke-width="1.0" stroke-linejoin="round" stroke-linecap="butt" d="m110.18546 6.0669355l0 0c0 -1.9221249 1.4947357 -3.4803147 3.338585 -3.4803147l0 0c0.88544464 0 1.7346268 0.3666749 2.360733 1.0193605c0.62610626 0.65268564 0.97785187 1.5379176 0.97785187 2.4609542l0 0c0 1.9221249 -1.4947357 3.4803152 -3.338585 3.4803152l0 0c-1.8438492 0 -3.338585 -1.5581903 -3.338585 -3.4803152z" fill-rule="evenodd"/><path fill="#000000" fill-opacity="0.0" d="m100.13159 6.0669355l0 0c0 -1.9221249 1.4947357 -3.4803147 3.338585 -3.4803147l0 0c0.88544464 0 1.7346268 0.3666749 2.360733 1.0193605c0.62610626 0.65268564 0.97785187 1.5379176 0.97785187 2.4609542l0 0c0 1.9221249 -1.4947357 3.4803152 -3.338585 3.4803152l0 0c-1.8438492 0 -3.338585 -1.5581903 -3.338585 -3.4803152z" fill-rule="evenodd"/><path stroke="#ffffff" stroke-width="1.0" stroke-linejoin="round" stroke-linecap="butt" d="m100.13159 6.0669355l0 0c0 -1.9221249 1.4947357 -3.4803147 3.338585 -3.4803147l0 0c0.88544464 0 1.7346268 0.3666749 2.360733 1.0193605c0.62610626 0.65268564 0.97785187 1.5379176 0.97785187 2.4609542l0 0c0 1.9221249 -1.4947357 3.4803152 -3.338585 3.4803152l0 0c-1.8438492 0 -3.338585 -1.5581903 -3.338585 -3.4803152z" fill-rule="evenodd"/><path fill="#000000" fill-opacity="0.0" d="m90.810936 6.0669355l0 0c0 -1.9221249 1.4947357 -3.4803147 3.338585 -3.4803147l0 0c0.88544464 0 1.7346268 0.3666749 2.360733 1.0193605c0.62610626 0.65268564 0.97785187 1.5379176 0.97785187 2.4609542l0 0c0 1.9221249 -1.4947357 3.4803152 -3.338585 3.4803152l0 0c-1.8438492 0 -3.338585 -1.5581903 -3.338585 -3.4803152z" fill-rule="evenodd"/><path stroke="#ffffff" stroke-width="1.0" stroke-linejoin="round" stroke-linecap="butt" d="m90.810936 6.0669355l0 0c0 -1.9221249 1.4947357 -3.4803147 3.338585 -3.4803147l0 0c0.88544464 0 1.7346268 0.3666749 2.360733 1.0193605c0.62610626 0.65268564 0.97785187 1.5379176 0.97785187 2.4609542l0 0c0 1.9221249 -1.4947357 3.4803152 -3.338585 3.4803152l0 0c-1.8438492 0 -3.338585 -1.5581903 -3.338585 -3.4803152z" fill-rule="evenodd"/><path fill="#000000" fill-opacity="0.0" d="m121.37481 37.46633l9.984261 -0.15747833" fill-rule="evenodd"/><path stroke="#ffffff" stroke-width="4.0" stroke-linejoin="round" stroke-linecap="butt" d="m121.37481 37.46633l9.984261 -0.15747833" fill-rule="evenodd"/><path fill="#000000" fill-opacity="0.0" d="m121.338585 46.04289l10.015739 0.28346634" fill-rule="evenodd"/><path stroke="#ffffff" stroke-width="4.0" stroke-linejoin="round" stroke-linecap="butt" d="m121.338585 46.04289l10.015739 0.28346634" fill-rule="evenodd"/><path fill="#000000" fill-opacity="0.0" d="m121.338585 28.462576l10.015739 0.25196838" fill-rule="evenodd"/><path stroke="#ffffff" stroke-width="4.0" stroke-linejoin="round" stroke-linecap="butt" d="m121.338585 28.462576l10.015739 0.25196838" fill-rule="evenodd"/><path fill="#000000" fill-opacity="0.0" d="m134.86613 43.00352l0 0c1.9395294 0 3.5118256 1.4876823 3.5118256 3.322834l0 0c0 0.88127136 -0.36999512 1.7264442 -1.028595 2.349598c-0.6585846 0.6231537 -1.5518341 0.9732361 -2.4832306 0.9732361l0 0c-1.9395142 0 -3.5118103 -1.4876823 -3.5118103 -3.322834l0 0c0 -1.8351517 1.5722961 -3.322834 3.5118103 -3.322834z" fill-rule="evenodd"/><path stroke="#ffffff" stroke-width="1.0" stroke-linejoin="round" stroke-linecap="butt" d="m134.86613 43.00352l0 0c1.9395294 0 3.5118256 1.4876823 3.5118256 3.322834l0 0c0 0.88127136 -0.36999512 1.7264442 -1.028595 2.349598c-0.6585846 0.6231537 -1.5518341 0.9732361 -2.4832306 0.9732361l0 0c-1.9395142 0 -3.5118103 -1.4876823 -3.5118103 -3.322834l0 0c0 -1.8351517 1.5722961 -3.322834 3.5118103 -3.322834z" fill-rule="evenodd"/><path fill="#000000" fill-opacity="0.0" d="m134.86613 33.992886l0 0c1.9395294 0 3.5118256 1.4876862 3.5118256 3.3228378l0 0c0 0.88126755 -0.36999512 1.7264442 -1.028595 2.349598c-0.6585846 0.6231499 -1.5518341 0.9732361 -2.4832306 0.9732361l0 0c-1.9395142 0 -3.5118103 -1.4876862 -3.5118103 -3.322834l0 0c0 -1.8351517 1.5722961 -3.3228378 3.5118103 -3.3228378z" fill-rule="evenodd"/><path stroke="#ffffff" stroke-width="1.0" stroke-linejoin="round" stroke-linecap="butt" d="m134.86613 33.992886l0 0c1.9395294 0 3.5118256 1.4876862 3.5118256 3.3228378l0 0c0 0.88126755 -0.36999512 1.7264442 -1.028595 2.349598c-0.6585846 0.6231499 -1.5518341 0.9732361 -2.4832306 0.9732361l0 0c-1.9395142 0 -3.5118103 -1.4876862 -3.5118103 -3.322834l0 0c0 -1.8351517 1.5722961 -3.3228378 3.5118103 -3.3228378z" fill-rule="evenodd"/><path fill="#000000" fill-opacity="0.0" d="m134.86613 25.39171l0 0c1.9395294 0 3.5118256 1.4876823 3.5118256 3.322834l0 0c0 0.88126945 -0.36999512 1.7264462 -1.028595 2.349598c-0.6585846 0.6231537 -1.5518341 0.973238 -2.4832306 0.973238l0 0c-1.9395142 0 -3.5118103 -1.4876862 -3.5118103 -3.322836l0 0c0 -1.8351517 1.5722961 -3.322834 3.5118103 -3.322834z" fill-rule="evenodd"/><path stroke="#ffffff" stroke-width="1.0" stroke-linejoin="round" stroke-linecap="butt" d="m134.86613 25.39171l0 0c1.9395294 0 3.5118256 1.4876823 3.5118256 3.322834l0 0c0 0.88126945 -0.36999512 1.7264462 -1.028595 2.349598c-0.6585846 0.6231537 -1.5518341 0.973238 -2.4832306 0.973238l0 0c-1.9395142 0 -3.5118103 -1.4876862 -3.5118103 -3.322836l0 0c0 -1.8351517 1.5722961 -3.322834 3.5118103 -3.322834z" fill-rule="evenodd"/><path fill="#000000" fill-opacity="0.0" d="m86.19371 37.46633l-10.708664 0.22047424" fill-rule="evenodd"/><path stroke="#ffffff" stroke-width="4.0" stroke-linejoin="round" stroke-linecap="butt" d="m86.19371 37.46633l-10.708664 0.22047424" fill-rule="evenodd"/><path fill="#000000" fill-opacity="0.0" d="m85.49606 28.901709l-10.015747 -0.22047234" fill-rule="evenodd"/><path stroke="#ffffff" stroke-width="4.0" stroke-linejoin="round" stroke-linecap="butt" d="m85.49606 28.901709l-10.015747 -0.22047234" fill-rule="evenodd"/><path fill="#000000" fill-opacity="0.0" d="m85.244095 47.347218l-9.763779 0" fill-rule="evenodd"/><path stroke="#ffffff" stroke-width="4.0" stroke-linejoin="round" stroke-linecap="butt" d="m85.244095 47.347218l-9.763779 0" fill-rule="evenodd"/><path fill="#000000" fill-opacity="0.0" d="m71.968506 32.00407l0 0c-1.9395218 0 -3.5118103 -1.4876823 -3.5118103 -3.322834l0 0c0 -0.88126945 0.3699875 -1.7264462 1.0285797 -2.349598c0.6585922 -0.6231537 1.5518417 -0.9732361 2.4832306 -0.9732361l0 0c1.9395142 0 3.5118103 1.4876842 3.5118103 3.322834l0 0c0 1.8351517 -1.5722961 3.322834 -3.5118103 3.322834z" fill-rule="evenodd"/><path stroke="#ffffff" stroke-width="1.0" stroke-linejoin="round" stroke-linecap="butt" d="m71.968506 32.00407l0 0c-1.9395218 0 -3.5118103 -1.4876823 -3.5118103 -3.322834l0 0c0 -0.88126945 0.3699875 -1.7264462 1.0285797 -2.349598c0.6585922 -0.6231537 1.5518417 -0.9732361 2.4832306 -0.9732361l0 0c1.9395142 0 3.5118103 1.4876842 3.5118103 3.322834l0 0c0 1.8351517 -1.5722961 3.322834 -3.5118103 3.322834z" fill-rule="evenodd"/><path fill="#000000" fill-opacity="0.0" d="m71.968506 41.0147l0 0c-1.9395218 0 -3.5118103 -1.4876823 -3.5118103 -3.322834l0 0c0 -0.88127136 0.3699875 -1.7264442 1.0285797 -2.349598c0.6585922 -0.6231537 1.5518417 -0.9732361 2.4832306 -0.9732361l0 0c1.9395142 0 3.5118103 1.4876823 3.5118103 3.322834l0 0c0 1.8351517 -1.5722961 3.322834 -3.5118103 3.322834z" fill-rule="evenodd"/><path stroke="#ffffff" stroke-width="1.0" stroke-linejoin="round" stroke-linecap="butt" d="m71.968506 41.0147l0 0c-1.9395218 0 -3.5118103 -1.4876823 -3.5118103 -3.322834l0 0c0 -0.88127136 0.3699875 -1.7264442 1.0285797 -2.349598c0.6585922 -0.6231537 1.5518417 -0.9732361 2.4832306 -0.9732361l0 0c1.9395142 0 3.5118103 1.4876823 3.5118103 3.322834l0 0c0 1.8351517 -1.5722961 3.322834 -3.5118103 3.322834z" fill-rule="evenodd"/><path fill="#000000" fill-opacity="0.0" d="m71.968506 50.670055l0 0c-1.9395218 0 -3.5118103 -1.4876862 -3.5118103 -3.3228378l0 0c0 -0.88126755 0.3699875 -1.7264442 1.0285797 -2.349598c0.6585922 -0.6231537 1.5518417 -0.9732361 2.4832306 -0.9732361l0 0c1.9395142 0 3.5118103 1.4876862 3.5118103 3.322834l0 0c0 1.8351517 -1.5722961 3.3228378 -3.5118103 3.3228378z" fill-rule="evenodd"/><path stroke="#ffffff" stroke-width="1.0" stroke-linejoin="round" stroke-linecap="butt" d="m71.968506 50.670055l0 0c-1.9395218 0 -3.5118103 -1.4876862 -3.5118103 -3.3228378l0 0c0 -0.88126755 0.3699875 -1.7264442 1.0285797 -2.349598c0.6585922 -0.6231537 1.5518417 -0.9732361 2.4832306 -0.9732361l0 0c1.9395142 0 3.5118103 1.4876862 3.5118103 3.322834l0 0c0 1.8351517 -1.5722961 3.3228378 -3.5118103 3.3228378z" fill-rule="evenodd"/><path fill="#ffffff" d="m50.144596 5.749165l11.716534 0l0 101.448814l-11.716534 0z" fill-rule="evenodd"/><path fill="#000000" fill-opacity="0.0" d="m95.20581 53.843613l0 10.929131" fill-rule="evenodd"/><path stroke="#ffffff" stroke-width="4.0" stroke-linejoin="round" stroke-linecap="butt" d="m95.20581 53.843613l0 10.929131" fill-rule="evenodd"/><path fill="#000000" fill-opacity="0.0" d="m110.85052 53.843613l0 10.929131" fill-rule="evenodd"/><path stroke="#ffffff" stroke-width="4.0" stroke-linejoin="round" stroke-linecap="butt" d="m110.85052 53.843613l0 10.929131" fill-rule="evenodd"/><path fill="#000000" fill-opacity="0.0" d="m95.20581 62.89555l-11.464569 16.40945" fill-rule="evenodd"/><path stroke="#ffffff" stroke-width="4.0" stroke-linejoin="round" stroke-linecap="butt" d="m95.20581 62.89555l-11.464569 16.40945" fill-rule="evenodd"/><path fill="#000000" fill-opacity="0.0" d="m110.85052 63.389153l9.165352 15.370079" fill-rule="evenodd"/><path stroke="#ffffff" stroke-width="4.0" stroke-linejoin="round" stroke-linecap="butt" d="m110.85052 63.389153l9.165352 15.370079" fill-rule="evenodd"/><path fill="#000000" fill-opacity="0.0" d="m83.82886 78.10345l0.22047424 25.574799" fill-rule="evenodd"/><path stroke="#ffffff" stroke-width="4.0" stroke-linejoin="round" stroke-linecap="butt" d="m83.82886 78.10345l0.22047424 25.574799" fill-rule="evenodd"/><path fill="#000000" fill-opacity="0.0" d="m120.017265 78.10333l-0.3149643 25.165352" fill-rule="evenodd"/><path stroke="#ffffff" stroke-width="4.0" stroke-linejoin="round" stroke-linecap="butt" d="m120.017265 78.10333l-0.3149643 25.165352" fill-rule="evenodd"/><path fill="#000000" fill-opacity="0.0" d="m123.040886 106.749l0 0c0 1.9221268 -1.4947357 3.4803162 -3.338585 3.4803162l0 0c-0.88544464 0 -1.7346268 -0.36667633 -2.360733 -1.0193634c-0.62610626 -0.6526871 -0.97784424 -1.5379181 -0.97784424 -2.4609528l0 0c0 -1.9221268 1.4947357 -3.4803162 3.3385773 -3.4803162l0 0c1.8438492 0 3.338585 1.5581894 3.338585 3.4803162z" fill-rule="evenodd"/><path stroke="#ffffff" stroke-width="1.0" stroke-linejoin="round" stroke-linecap="butt" d="m123.040886 106.749l0 0c0 1.9221268 -1.4947357 3.4803162 -3.338585 3.4803162l0 0c-0.88544464 0 -1.7346268 -0.36667633 -2.360733 -1.0193634c-0.62610626 -0.6526871 -0.97784424 -1.5379181 -0.97784424 -2.4609528l0 0c0 -1.9221268 1.4947357 -3.4803162 3.3385773 -3.4803162l0 0c1.8438492 0 3.338585 1.5581894 3.338585 3.4803162z" fill-rule="evenodd"/><path fill="#000000" fill-opacity="0.0" d="m87.38791 107.15856l0 0c0 1.9221268 -1.4947357 3.4803162 -3.3385773 3.4803162l0 0c-0.8854523 0 -1.7346344 -0.36667633 -2.3607407 -1.0193634c-0.62610626 -0.65267944 -0.97784424 -1.5379181 -0.97784424 -2.4609528l0 0c0 -1.9221268 1.4947357 -3.4803162 3.338585 -3.4803162l0 0c1.8438416 0 3.3385773 1.5581894 3.3385773 3.4803162z" fill-rule="evenodd"/><path stroke="#ffffff" stroke-width="1.0" stroke-linejoin="round" stroke-linecap="butt" d="m87.38791 107.15856l0 0c0 1.9221268 -1.4947357 3.4803162 -3.3385773 3.4803162l0 0c-0.8854523 0 -1.7346344 -0.36667633 -2.3607407 -1.0193634c-0.62610626 -0.65267944 -0.97784424 -1.5379181 -0.97784424 -2.4609528l0 0c0 -1.9221268 1.4947357 -3.4803162 3.338585 -3.4803162l0 0c1.8438416 0 3.3385773 1.5581894 3.3385773 3.4803162z" fill-rule="evenodd"/><path fill="#ffffff" d="m60.805775 55.49458l0 10.204723l-52.72441 0l0 -10.204723z" fill-rule="evenodd"/><path fill="#ffffff" d="m210.50247 7.3779726l11.748032 0l0 100.97637l-11.748032 0z" fill-rule="evenodd"/><path fill="#000000" fill-opacity="0.0" d="m-10.483381 119.909485l289.73227 0l0 58.614166l-289.73227 0z" fill-rule="evenodd"/><path fill="#ffffff" d="m3.6714346 153.22948l0 -18.125l3.6562498 0l0 7.125l7.171875 0l0 -7.125l3.65625 0l0 18.125l-3.65625 0l0 -7.921875l-7.171875 0l0 7.921875l-3.6562498 0zm20.853668 -9.125l-3.15625 -0.578125q0.53125 -1.890625 1.828125 -2.8125q1.296875 -0.921875 3.859375 -0.921875q2.328125 0 3.453125 0.5625q1.140625 0.546875 1.6093769 1.390625q0.46875 0.84375 0.46875 3.109375l-0.046875 4.0625q0 1.734375 0.171875 2.5625q0.171875 0.8125 0.625 1.75l-3.437502 0q-0.140625 -0.34375 -0.328125 -1.03125q-0.09375 -0.296875 -0.125 -0.40625q-0.890625 0.875 -1.90625 1.3125q-1.015625 0.421875 -2.171875 0.421875q-2.03125 0 -3.203125 -1.09375q-1.15625 -1.109375 -1.15625 -2.796875q0 -1.109375 0.53125 -1.96875q0.53125 -0.875 1.484375 -1.34375q0.96875 -0.46875 2.765625 -0.8125q2.4375 -0.453125 3.375 -0.859375l0 -0.34375q0 -1.0 -0.5 -1.421875q-0.484375 -0.421875 -1.859375 -0.421875q-0.921875 0 -1.453125 0.359375q-0.515625 0.359375 -0.828125 1.28125zm4.640625 2.8125q-0.671875 0.234375 -2.125 0.546875q-1.4375 0.296875 -1.875 0.59375q-0.6875 0.484375 -0.6875 1.234375q0 0.71875 0.546875 1.25q0.546875 0.53125 1.390625 0.53125q0.9375 0 1.78125 -0.609375q0.640625 -0.46875 0.828125 -1.15625q0.140625 -0.4375 0.140625 -1.6875l0 -0.703125zm10.164431 6.3125l-3.46875 0l0 -13.140625l3.21875 0l0 1.875q0.828125 -1.328125 1.484375 -1.75q0.671875 -0.421875 1.515625 -0.421875q1.1875 0 2.28125 0.65625l-1.0625 3.03125q-0.890625 -0.5625 -1.640625 -0.5625q-0.734375 0 -1.25 0.40625q-0.5 0.390625 -0.796875 1.453125q-0.28125 1.046875 -0.28125 4.390625l0 4.0625zm18.575455 0l-3.21875 0l0 -1.921875q-0.8125 1.125 -1.90625 1.671875q-1.09375 0.546875 -2.203125 0.546875q-2.265625 0 -3.890625 -1.8125q-1.609375 -1.828125 -1.609375 -5.09375q0 -3.34375 1.578125 -5.078125q1.578125 -1.75 3.96875 -1.75q2.203125 0 3.8125 1.84375l0 -6.53125l3.46875 0l0 18.125zm-9.265625 -6.84375q0 2.09375 0.578125 3.03125q0.84375 1.359375 2.34375 1.359375q1.203125 0 2.046875 -1.015625q0.84375 -1.015625 0.84375 -3.046875q0 -2.265625 -0.828125 -3.25q-0.8125 -1.0 -2.078125 -1.0q-1.234375 0 -2.078125 0.984375q-0.828125 0.96875 -0.828125 2.9375zm15.143311 6.84375l-4.15625 -13.140625l3.375 0l2.4687462 8.609375l2.265625 -8.609375l3.34375 0l2.1875 8.609375l2.515625 -8.609375l3.421875 0l-4.21875 13.140625l-3.34375 0l-2.25 -8.453125l-2.234375 8.453125l-3.3749962 0zm19.85728 -9.125l-3.15625 -0.578125q0.53125 -1.890625 1.828125 -2.8125q1.296875 -0.921875 3.859375 -0.921875q2.328125 0 3.453125 0.5625q1.140625 0.546875 1.609375 1.390625q0.46875 0.84375 0.46875 3.109375l-0.046875 4.0625q0 1.734375 0.171875 2.5625q0.171875 0.8125 0.625 1.75l-3.4375 0q-0.140625 -0.34375 -0.328125 -1.03125q-0.09375 -0.296875 -0.125 -0.40625q-0.890625 0.875 -1.90625 1.3125q-1.015625 0.421875 -2.171875 0.421875q-2.03125 0 -3.203125 -1.09375q-1.15625 -1.109375 -1.15625 -2.796875q0 -1.109375 0.53125 -1.96875q0.53125 -0.875 1.484375 -1.34375q0.96875 -0.46875 2.765625 -0.8125q2.4375 -0.453125 3.375 -0.859375l0 -0.34375q0 -1.0 -0.5 -1.421875q-0.484375 -0.421875 -1.859375 -0.421875q-0.921875 0 -1.453125 0.359375q-0.515625 0.359375 -0.828125 1.28125zm4.640625 2.8125q-0.671875 0.234375 -2.125 0.546875q-1.4375 0.296875 -1.875 0.59375q-0.6875 0.484375 -0.6875 1.234375q0 0.71875 0.546875 1.25q0.546875 0.53125 1.390625 0.53125q0.9375 0 1.78125 -0.609375q0.640625 -0.46875 0.828125 -1.15625q0.140625 -0.4375 0.140625 -1.6875l0 -0.703125zm10.164429 6.3125l-3.46875 0l0 -13.140625l3.21875 0l0 1.875q0.828125 -1.328125 1.484375 -1.75q0.671875 -0.421875 1.515625 -0.421875q1.1875 0 2.28125 0.65625l-1.0625 3.03125q-0.890625 -0.5625 -1.640625 -0.5625q-0.734375 0 -1.25 0.40625q-0.5 0.390625 -0.796875 1.453125q-0.28125 1.046875 -0.28125 4.390625l0 4.0625zm14.137955 -4.1875l3.46875 0.59375q-0.671875 1.90625 -2.109375 2.90625q-1.4375 0.984375 -3.609375 0.984375q-3.421875 0 -5.0625 -2.234375q-1.3125 -1.796875 -1.3125 -4.53125q0 -3.265625 1.703125 -5.109375q1.71875 -1.859375 4.328125 -1.859375q2.921875 0 4.609375 1.9375q1.703125 1.9375 1.640625 5.9375l-8.71875 0q0.046875 1.546875 0.84375 2.40625q0.8125 0.859375 2.0 0.859375q0.828125 0 1.375 -0.4375q0.5625 -0.453125 0.84375 -1.453125zm0.203125 -3.5q-0.046875 -1.515625 -0.796875 -2.296875q-0.734375 -0.78125 -1.796875 -0.78125q-1.125 0 -1.875 0.828125q-0.734375 0.828125 -0.734375 2.25l5.203125 0zm28.745667 7.6875l-3.984375 0l-1.578125 -4.125l-7.25 0l-1.484375 4.125l-3.890625 0l7.0625 -18.125l3.875 0l7.25 18.125zm-6.734375 -7.171875l-2.5 -6.734375l-2.453125 6.734375l4.953125 0zm20.103668 -2.078125l-3.421875 0.625q-0.171875 -1.03125 -0.78125 -1.546875q-0.609375 -0.53125 -1.59375 -0.53125q-1.296875 0 -2.078125 0.90625q-0.765625 0.890625 -0.765625 3.0q0 2.328125 0.78125 3.296875q0.796875 0.96875 2.109375 0.96875q1.0 0 1.625 -0.5625q0.625 -0.5625 0.890625 -1.9375l3.40625 0.578125q-0.53125 2.34375 -2.046875 3.546875q-1.5 1.203125 -4.03125 1.203125q-2.875 0 -4.59375 -1.8125q-1.71875 -1.828125 -1.71875 -5.03125q0 -3.265625 1.71875 -5.078125q1.71875 -1.8125 4.65625 -1.8125q2.390625 0 3.8125 1.046875q1.421875 1.03125 2.03125 3.140625zm14.086304 0l-3.421875 0.625q-0.171875 -1.03125 -0.78125 -1.546875q-0.609375 -0.53125 -1.59375 -0.53125q-1.296875 0 -2.078125 0.90625q-0.765625 0.890625 -0.765625 3.0q0 2.328125 0.78125 3.296875q0.796875 0.96875 2.109375 0.96875q1.0 0 1.625 -0.5625q0.625 -0.5625 0.890625 -1.9375l3.40625 0.578125q-0.53125 2.34375 -2.046875 3.546875q-1.5 1.203125 -4.03125 1.203125q-2.875 0 -4.59375 -1.8125q-1.71875 -1.828125 -1.71875 -5.03125q0 -3.265625 1.71875 -5.078125q1.71875 -1.8125 4.65625 -1.8125q2.390625 0 3.8125 1.046875q1.421875 1.03125 2.03125 3.140625zm10.242554 5.0625l3.46875 0.59375q-0.671875 1.90625 -2.109375 2.90625q-1.4375 0.984375 -3.609375 0.984375q-3.421875 0 -5.0625 -2.234375q-1.3125 -1.796875 -1.3125 -4.53125q0 -3.265625 1.703125 -5.109375q1.71875 -1.859375 4.328125 -1.859375q2.921875 0 4.609375 1.9375q1.703125 1.9375 1.640625 5.9375l-8.71875 0q0.046875 1.546875 0.84375 2.40625q0.8125 0.859375 2.0 0.859375q0.828125 0 1.375 -0.4375q0.5625 -0.453125 0.84375 -1.453125zm0.203125 -3.5q-0.046875 -1.515625 -0.796875 -2.296875q-0.734375 -0.78125 -1.796875 -0.78125q-1.125 0 -1.875 0.828125q-0.734375 0.828125 -0.734375 2.25l5.203125 0zm6.2738037 7.6875l0 -18.125l3.484375 0l0 18.125l-3.484375 0zm14.646347 -4.1875l3.46875 0.59375q-0.671875 1.90625 -2.109375 2.90625q-1.4375 0.984375 -3.609375 0.984375q-3.421875 0 -5.0625 -2.234375q-1.3125 -1.796875 -1.3125 -4.53125q0 -3.265625 1.703125 -5.109375q1.71875 -1.859375 4.328125 -1.859375q2.921875 0 4.609375 1.9375q1.703125 1.9375 1.640625 5.9375l-8.71875 0q0.046875 1.546875 0.84375 2.40625q0.8125 0.859375 2.0 0.859375q0.828125 0 1.375 -0.4375q0.5625 -0.453125 0.84375 -1.453125zm0.203125 -3.5q-0.046875 -1.515625 -0.796875 -2.296875q-0.734375 -0.78125 -1.796875 -0.78125q-1.125 0 -1.875 0.828125q-0.734375 0.828125 -0.734375 2.25l5.203125 0zm9.601929 7.6875l-3.46875 0l0 -13.140625l3.21875 0l0 1.875q0.828125 -1.328125 1.484375 -1.75q0.671875 -0.421875 1.515625 -0.421875q1.1875 0 2.28125 0.65625l-1.0625 3.03125q-0.890625 -0.5625 -1.640625 -0.5625q-0.734375 0 -1.25 0.40625q-0.5 0.390625 -0.796875 1.453125q-0.28125 1.046875 -0.28125 4.390625l0 4.0625zm9.137955 -9.125l-3.15625 -0.578125q0.53125 -1.890625 1.828125 -2.8125q1.296875 -0.921875 3.859375 -0.921875q2.328125 0 3.453125 0.5625q1.140625 0.546875 1.609375 1.390625q0.46875 0.84375 0.46875 3.109375l-0.046875 4.0625q0 1.734375 0.171875 2.5625q0.171875 0.8125 0.625 1.75l-3.4375 0q-0.140625 -0.34375 -0.328125 -1.03125q-0.09375 -0.296875 -0.125 -0.40625q-0.890625 0.875 -1.90625 1.3125q-1.015625 0.421875 -2.171875 0.421875q-2.03125 0 -3.203125 -1.09375q-1.15625 -1.109375 -1.15625 -2.796875q0 -1.109375 0.53125 -1.96875q0.53125 -0.875 1.484375 -1.34375q0.96875 -0.46875 2.765625 -0.8125q2.4375 -0.453125 3.375 -0.859375l0 -0.34375q0 -1.0 -0.5 -1.421875q-0.484375 -0.421875 -1.859375 -0.421875q-0.921875 0 -1.453125 0.359375q-0.515625 0.359375 -0.828125 1.28125zm4.640625 2.8125q-0.671875 0.234375 -2.125 0.546875q-1.4375 0.296875 -1.875 0.59375q-0.6875 0.484375 -0.6875 1.234375q0 0.71875 0.546875 1.25q0.546875 0.53125 1.390625 0.53125q0.9375 0 1.78125 -0.609375q0.640625 -0.46875 0.828125 -1.15625q0.140625 -0.4375 0.140625 -1.6875l0 -0.703125zm12.867554 -6.828125l0 2.78125l-2.375 0l0 5.28125q0 1.609375 0.0625 1.875q0.078125 0.265625 0.3125 0.453125q0.234375 0.171875 0.59375 0.171875q0.46875 0 1.390625 -0.34375l0.296875 2.703125q-1.21875 0.515625 -2.75 0.515625q-0.9375 0 -1.6875 -0.3125q-0.75 -0.3125 -1.109375 -0.8125q-0.359375 -0.5 -0.484375 -1.359375q-0.109375 -0.609375 -0.109375 -2.453125l0 -5.71875l-1.59375 0l0 -2.78125l1.59375 0l0 -2.609375l3.484375 -2.015625l0 4.625l2.375 0zm10.0125885 8.953125l3.46875 0.59375q-0.671875 1.90625 -2.109375 2.90625q-1.4375 0.984375 -3.609375 0.984375q-3.421875 0 -5.0625 -2.234375q-1.3125 -1.796875 -1.3125 -4.53125q0 -3.265625 1.703125 -5.109375q1.71875 -1.859375 4.328125 -1.859375q2.921875 0 4.609375 1.9375q1.703125 1.9375 1.640625 5.9375l-8.71875 0q0.046875 1.546875 0.84375 2.40625q0.8125 0.859375 2.0 0.859375q0.828125 0 1.375 -0.4375q0.5625 -0.453125 0.84375 -1.453125zm0.203125 -3.5q-0.046875 -1.515625 -0.796875 -2.296875q-0.734375 -0.78125 -1.796875 -0.78125q-1.125 0 -1.875 0.828125q-0.734375 0.828125 -0.734375 2.25l5.203125 0zm18.320694 7.6875l-3.21875 0l0 -1.921875q-0.8125 1.125 -1.90625 1.671875q-1.09375 0.546875 -2.203125 0.546875q-2.2656403 0 -3.8906403 -1.8125q-1.609375 -1.828125 -1.609375 -5.09375q0 -3.34375 1.578125 -5.078125q1.578125 -1.75 3.9687653 -1.75q2.203125 0 3.8125 1.84375l0 -6.53125l3.46875 0l0 18.125zm-9.265625 -6.84375q0 2.09375 0.578125 3.03125q0.84375 1.359375 2.34375 1.359375q1.203125 0 2.046875 -1.015625q0.84375 -1.015625 0.84375 -3.046875q0 -2.265625 -0.828125 -3.25q-0.8125 -1.0 -2.078125 -1.0q-1.234375 0 -2.078125 0.984375q-0.828125 0.96875 -0.828125 2.9375z" fill-rule="nonzero"/><path fill="#ffffff" d="m16.245028 176.5576l3.5625 1.125q-0.828125 2.96875 -2.734375 4.421875q-1.890625 1.4375 -4.796875 1.4375q-3.625 0 -5.953125 -2.46875q-2.3125 -2.46875 -2.3125 -6.75q0 -4.53125 2.328125 -7.03125q2.34375 -2.5 6.15625 -2.5q3.328125 0 5.40625 1.96875q1.234375 1.15625 1.84375 3.328125l-3.625 0.875q-0.3125 -1.40625 -1.34375 -2.21875q-1.015625 -0.828125 -2.46875 -0.828125q-2.015625 0 -3.28125 1.453125q-1.25 1.4375 -1.25 4.6875q0 3.4375 1.234375 4.90625q1.234375 1.453125 3.21875 1.453125q1.46875 0 2.515625 -0.921875q1.046875 -0.9375 1.5 -2.9375zm5.869293 -0.078125q0 -1.734375 0.84375 -3.34375q0.859375 -1.625 2.421875 -2.484375q1.5625 -0.859375 3.5 -0.859375q2.984375 0 4.875002 1.9375q1.90625 1.9375 1.90625 4.890625q0 2.984375 -1.921875 4.953125q-1.9218769 1.953125 -4.843752 1.953125q-1.796875 0 -3.4375 -0.8125q-1.640625 -0.8125 -2.5 -2.390625q-0.84375 -1.578125 -0.84375 -3.84375zm3.5625 0.1875q0 1.953125 0.921875 3.0q0.9375 1.03125 2.296875 1.03125q1.359375 0 2.28125 -1.03125q0.9218769 -1.046875 0.9218769 -3.03125q0 -1.921875 -0.9218769 -2.953125q-0.921875 -1.046875 -2.28125 -1.046875q-1.359375 0 -2.296875 1.046875q-0.921875 1.03125 -0.921875 2.984375zm12.455812 -6.578125l3.203125 0l0 1.796875q1.71875 -2.09375 4.09375 -2.09375q1.25 0 2.171875 0.53125q0.9375 0.515625 1.53125 1.5625q0.875 -1.046875 1.875 -1.5625q1.0 -0.53125 2.140625 -0.53125q1.4375 0 2.4375 0.59375q1.0 0.59375 1.5 1.71875q0.359375 0.84375 0.359375 2.734375l0 8.390625l-3.46875 0l0 -7.5q0 -1.96875 -0.359375 -2.53125q-0.484375 -0.734375 -1.484375 -0.734375q-0.734375 0 -1.375 0.453125q-0.640625 0.4375 -0.9375 1.296875q-0.28125 0.859375 -0.28125 2.703125l0 6.3125l-3.46875 0l0 -7.203125q0 -1.90625 -0.1875 -2.46875q-0.1875 -0.5625 -0.578125 -0.828125q-0.390625 -0.265625 -1.046875 -0.265625q-0.8125 0 -1.453125 0.4375q-0.640625 0.421875 -0.921875 1.234375q-0.28125 0.8125 -0.28125 2.71875l0 6.375l-3.46875 0l0 -13.140625zm22.677017 0l3.2343712 0l0 1.9375q0.640625 -0.984375 1.703125 -1.609375q1.078125 -0.625 2.390625 -0.625q2.296875 0 3.890625 1.796875q1.59375 1.796875 1.59375 5.0q0 3.296875 -1.609375 5.125q-1.609375 1.8125 -3.890625 1.8125q-1.09375 0 -1.984375 -0.421875q-0.875 -0.4375 -1.859375 -1.5l0 6.625l-3.4687462 0l0 -18.140625zm3.4374962 6.34375q0 2.21875 0.875 3.28125q0.875 1.046875 2.140625 1.046875q1.21875 0 2.015625 -0.96875q0.8125 -0.96875 0.8125 -3.171875q0 -2.078125 -0.828125 -3.078125q-0.828125 -1.0 -2.0625 -1.0q-1.265625 0 -2.109375 0.984375q-0.84375 0.984375 -0.84375 2.90625zm20.783936 6.796875l0 -1.96875q-0.71875 1.046875 -1.890625 1.65625q-1.171875 0.609375 -2.46875 0.609375q-1.328125 0 -2.375 -0.578125q-1.046875 -0.578125 -1.515625 -1.625q-0.46875 -1.0625 -0.46875 -2.921875l0 -8.3125l3.46875 0l0 6.046875q0 2.765625 0.1875 3.390625q0.203125 0.625 0.703125 1.0q0.5 0.359375 1.28125 0.359375q0.890625 0 1.59375 -0.484375q0.71875 -0.5 0.96875 -1.21875q0.265625 -0.734375 0.265625 -3.546875l0 -5.546875l3.46875 0l0 13.140625l-3.21875 0zm12.846436 -13.140625l0 2.78125l-2.375 0l0 5.28125q0 1.609375 0.0625 1.875q0.078125 0.265625 0.3125 0.453125q0.234375 0.171875 0.59375 0.171875q0.46875 0 1.390625 -0.34375l0.296875 2.703125q-1.21875 0.515625 -2.75 0.515625q-0.9375 0 -1.6875 -0.3125q-0.75 -0.3125 -1.109375 -0.8125q-0.359375 -0.5 -0.484375 -1.359375q-0.109375 -0.609375 -0.109375 -2.453125l0 -5.71875l-1.59375 0l0 -2.78125l1.59375 0l0 -2.609375l3.484375 -2.015625l0 4.625l2.375 0zm5.0125885 4.015625l-3.15625 -0.578125q0.53125 -1.890625 1.828125 -2.8125q1.296875 -0.921875 3.859375 -0.921875q2.328125 0 3.453125 0.5625q1.140625 0.546875 1.609375 1.390625q0.46875 0.84375 0.46875 3.109375l-0.046875 4.0625q0 1.734375 0.171875 2.5625q0.171875 0.8125 0.625 1.75l-3.4375 0q-0.140625 -0.34375 -0.328125 -1.03125q-0.09375 -0.296875 -0.125 -0.40625q-0.890625 0.875 -1.90625 1.3125q-1.015625 0.421875 -2.171875 0.421875q-2.03125 0 -3.203125 -1.09375q-1.15625 -1.109375 -1.15625 -2.796875q0 -1.109375 0.53125 -1.96875q0.53125 -0.875 1.484375 -1.34375q0.96875 -0.46875 2.765625 -0.8125q2.4375 -0.453125 3.375 -0.859375l0 -0.34375q0 -1.0 -0.5 -1.421875q-0.484375 -0.421875 -1.859375 -0.421875q-0.921875 0 -1.453125 0.359375q-0.515625 0.359375 -0.828125 1.28125zm4.640625 2.8125q-0.671875 0.234375 -2.125 0.546875q-1.4375 0.296875 -1.875 0.59375q-0.6875 0.484375 -0.6875 1.234375q0 0.71875 0.546875 1.25q0.546875 0.53125 1.390625 0.53125q0.9375 0 1.78125 -0.609375q0.640625 -0.46875 0.828125 -1.15625q0.140625 -0.4375 0.140625 -1.6875l0 -0.703125zm12.867554 -6.828125l0 2.78125l-2.375 0l0 5.28125q0 1.609375 0.0625 1.875q0.078125 0.265625 0.3125 0.453125q0.234375 0.171875 0.59375 0.171875q0.46875 0 1.390625 -0.34375l0.296875 2.703125q-1.21875 0.515625 -2.75 0.515625q-0.9375 0 -1.6875 -0.3125q-0.75 -0.3125 -1.109375 -0.8125q-0.359375 -0.5 -0.484375 -1.359375q-0.109375 -0.609375 -0.109375 -2.453125l0 -5.71875l-1.59375 0l0 -2.78125l1.59375 0l0 -2.609375l3.484375 -2.015625l0 4.625l2.375 0zm2.4032135 -1.78125l0 -3.203125l3.484375 0l0 3.203125l-3.484375 0zm0 14.921875l0 -13.140625l3.484375 0l0 13.140625l-3.484375 0zm6.240097 -6.75q0 -1.734375 0.84375 -3.34375q0.859375 -1.625 2.421875 -2.484375q1.5625 -0.859375 3.5 -0.859375q2.984375 0 4.875 1.9375q1.90625 1.9375 1.90625 4.890625q0 2.984375 -1.921875 4.953125q-1.921875 1.953125 -4.84375 1.953125q-1.796875 0 -3.4375 -0.8125q-1.640625 -0.8125 -2.5 -2.390625q-0.84375 -1.578125 -0.84375 -3.84375zm3.5625 0.1875q0 1.953125 0.921875 3.0q0.9375 1.03125 2.296875 1.03125q1.359375 0 2.28125 -1.03125q0.921875 -1.046875 0.921875 -3.03125q0 -1.921875 -0.921875 -2.953125q-0.921875 -1.046875 -2.28125 -1.046875q-1.359375 0 -2.296875 1.046875q-0.921875 1.03125 -0.921875 2.984375zm24.658936 6.5625l-3.46875 0l0 -6.703125q0 -2.125 -0.234375 -2.75q-0.21875 -0.625 -0.71875 -0.96875q-0.5 -0.34375 -1.203125 -0.34375q-0.90625 0 -1.625 0.5q-0.71875 0.484375 -0.984375 1.296875q-0.265625 0.8125 -0.265625 3.015625l0 5.953125l-3.46875 0l0 -13.140625l3.21875 0l0 1.9375q1.71875 -2.234375 4.328125 -2.234375q1.15625 0 2.109375 0.421875q0.953125 0.40625 1.4375 1.0625q0.484375 0.640625 0.671875 1.453125q0.203125 0.8125 0.203125 2.34375l0 8.15625zm17.67038 0l0 -18.125l3.65625 0l0 8.046875l7.40625 -8.046875l4.921875 0l-6.828125 7.0625l7.1875 11.0625l-4.734375 0l-4.984375 -8.515625l-2.96875 3.03125l0 5.484375l-3.65625 0zm25.822418 -4.1875l3.46875 0.59375q-0.671875 1.90625 -2.109375 2.90625q-1.4375 0.984375 -3.609375 0.984375q-3.421875 0 -5.0625 -2.234375q-1.3125 -1.796875 -1.3125 -4.53125q0 -3.265625 1.703125 -5.109375q1.71875 -1.859375 4.328125 -1.859375q2.921875 0 4.609375 1.9375q1.703125 1.9375 1.640625 5.9375l-8.71875 0q0.046875 1.546875 0.84375 2.40625q0.8125 0.859375 2.0 0.859375q0.828125 0 1.375 -0.4375q0.5625 -0.453125 0.84375 -1.453125zm0.203125 -3.5q-0.046875 -1.515625 -0.796875 -2.296875q-0.734375 -0.78125 -1.796875 -0.78125q-1.125 0 -1.875 0.828125q-0.734375 0.828125 -0.734375 2.25l5.203125 0zm9.601929 7.6875l-3.46875 0l0 -13.140625l3.21875 0l0 1.875q0.828125 -1.328125 1.484375 -1.75q0.671875 -0.421875 1.515625 -0.421875q1.1875 0 2.28125 0.65625l-1.0625 3.03125q-0.890625 -0.5625 -1.640625 -0.5625q-0.734375 0 -1.25 0.40625q-0.5 0.390625 -0.796875 1.453125q-0.28125 1.046875 -0.28125 4.390625l0 4.0625zm18.481705 0l-3.46875 0l0 -6.703125q0 -2.125 -0.234375 -2.75q-0.21875 -0.625 -0.71875 -0.96875q-0.5 -0.34375 -1.203125 -0.34375q-0.90625 0 -1.625 0.5q-0.71875 0.484375 -0.984375 1.296875q-0.265625 0.8125 -0.265625 3.015625l0 5.953125l-3.46875 0l0 -13.140625l3.21875 0l0 1.9375q1.71875 -2.234375 4.328125 -2.234375q1.15625 0 2.109375 0.421875q0.953125 0.40625 1.4375 1.0625q0.484375 0.640625 0.671875 1.453125q0.203125 0.8125 0.203125 2.34375l0 8.15625zm11.127686 -4.1875l3.46875 0.59375q-0.671875 1.90625 -2.109375 2.90625q-1.4375 0.984375 -3.609375 0.984375q-3.421875 0 -5.0625 -2.234375q-1.3125 -1.796875 -1.3125 -4.53125q0 -3.265625 1.703125 -5.109375q1.71875 -1.859375 4.328125 -1.859375q2.921875 0 4.609375 1.9375q1.703125 1.9375 1.640625 5.9375l-8.71875 0q0.046875 1.546875 0.84375 2.40625q0.8125 0.859375 2.0 0.859375q0.828125 0 1.375 -0.4375q0.5625 -0.453125 0.84375 -1.453125zm0.203125 -3.5q-0.046875 -1.515625 -0.796875 -2.296875q-0.734375 -0.78125 -1.796875 -0.78125q-1.125 0 -1.875 0.828125q-0.734375 0.828125 -0.734375 2.25l5.203125 0zm6.2738037 7.6875l0 -18.125l3.484375 0l0 18.125l-3.484375 0zm5.818207 -3.75l3.484375 -0.53125q0.21876526 1.015625 0.90626526 1.546875q0.6875 0.515625 1.90625 0.515625q1.34375 0 2.03125 -0.484375q0.453125 -0.359375 0.453125 -0.9375q0 -0.390625 -0.25 -0.65625q-0.25 -0.234375 -1.15625 -0.453125q-4.2031403 -0.921875 -5.3281403 -1.6875q-1.5625 -1.0625 -1.5625 -2.96875q0 -1.703125 1.34375 -2.859375q1.34375 -1.171875 4.1875153 -1.171875q2.6875 0 4.0 0.890625q1.3125 0.875 1.8125 2.59375l-3.28125 0.609375q-0.21875 -0.765625 -0.8125 -1.171875q-0.578125 -0.421875 -1.65625 -0.421875q-1.375 0 -1.96875 0.390625q-0.40625 0.265625 -0.40625 0.703125q0 0.375 0.359375 0.625q0.46875 0.34375 3.234375 0.984375q2.78125 0.625 3.890625 1.546875q1.078125 0.921875 1.078125 2.578125q0 1.8125 -1.515625 3.109375q-1.5 1.296875 -4.453125 1.296875q-2.6875 0 -4.2500153 -1.078125q-1.5625 -1.09375 -2.046875 -2.96875z" fill-rule="nonzero"/><path fill="#ffffff" d="m269.9761 3.8240817l0 0c0.8008423 -0.6834326 2.0987244 -0.6828034 2.8988953 0.0014054775l5.795227 4.955331l0 0c0.38424683 0.3285694 0.6000061 0.7740555 0.5997925 1.2384586c-2.4414062E-4 0.4644022 -0.21640015 0.90968037 -0.60098267 1.2378759l-58.328262 49.77704c-0.8008423 0.68343353 -2.098709 0.6828041 -2.8988953 -0.0014038086l-5.795212 -4.95533c-0.80018616 -0.68421173 -0.79963684 -1.7929039 0.0011901855 -2.4763374z" fill-rule="evenodd"/><path fill="#ffffff" d="m281.41296 103.415825l0 0c0.7539673 0.6433945 0.7541199 1.6867218 3.3569336E-4 2.3303452l-5.459259 4.6613693l0 0c-0.361969 0.3090744 -0.8529663 0.48275757 -1.3649597 0.48283386c-0.5119934 7.6293945E-5 -1.0030212 -0.17345428 -1.3651123 -0.48242188l-62.11998 -53.00865c-0.75398254 -0.64339066 -0.75413513 -1.6867218 -3.3569336E-4 -2.3303452l5.459259 -4.6613693c0.7537842 -0.64361954 1.9760742 -0.64380264 2.7300568 -4.081726E-4z" fill-rule="evenodd"/><path fill="#ffffff" d="m2.1445954 5.749165l11.716536 0l0 101.448814l-11.716536 0z" fill-rule="evenodd"/><path fill="#000000" fill-opacity="0.0" d="m-23.467192 126.5289l313.10236 0" fill-rule="evenodd"/><path stroke="#ffffff" stroke-width="1.0" stroke-linejoin="round" stroke-linecap="butt" d="m-23.467192 126.5289l313.10236 0" fill-rule="evenodd"/></g></svg>