<svg version="1.1" viewBox="0.0 0.0 285.3254593175853 114.12860892388451" fill="none" stroke="none" stroke-linecap="square" stroke-miterlimit="10" xmlns:xlink="http://www.w3.org/1999/xlink" xmlns="http://www.w3.org/2000/svg"><clipPath id="p.0"><path d="m0 0l285.32547 0l0 114.12861l-285.32547 0l0 -114.12861z" clip-rule="nonzero"/></clipPath><g clip-path="url(#p.0)"><path fill="#000000" fill-opacity="0.0" d="m0 0l285.32547 0l0 114.12861l-285.32547 0z" fill-rule="evenodd"/><path fill="#000000" fill-opacity="0.0" d="m-22.12336 -4.3346133l314.14172 0l0 198.67717l-314.14172 0z" fill-rule="evenodd"/><path stroke="#000000" stroke-width="1.0" stroke-linejoin="round" stroke-linecap="butt" d="m-22.12336 -4.3346133l314.14172 0l0 198.67717l-314.14172 0z" fill-rule="evenodd"/><path fill="#0b5394" d="m196.15742 2.6219819l0 0c0.8008423 -0.6834326 2.0987244 -0.6828033 2.8988953 0.001405716l5.795227 4.955331l0 0c0.38424683 0.32856846 0.6000061 0.774055 0.5997772 1.2384582c-2.2888184E-4 0.46440315 -0.21640015 0.90968037 -0.60098267 1.2378759l-58.328247 49.77704c-0.8008423 0.68343353 -2.0987244 0.6828041 -2.8988953 -0.0014038086l-5.795227 -4.9553337c-0.8001709 -0.6842079 -0.79963684 -1.7929001 0.0012054443 -2.4763336z" fill-rule="evenodd"/><path fill="#0b5394" d="m207.59427 102.21372l0 0c0.75398254 0.6433945 0.75413513 1.6867294 3.5095215E-4 2.3303452l-5.459259 4.6613693l0 0c-0.36198425 0.30908203 -0.85298157 0.48275757 -1.3649597 0.4828415c-0.5119934 7.6293945E-5 -1.0030365 -0.17346191 -1.3651123 -0.4824295l-62.11998 -53.008648c-0.75398254 -0.6433945 -0.75413513 -1.6867256 -3.5095215E-4 -2.3303452l5.459259 -4.6613693c0.75379944 -0.64361954 1.9760895 -0.64380264 2.730072 -4.119873E-4z" fill-rule="evenodd"/><path fill="#000000" fill-opacity="0.0" d="m87.537544 24.25385l0 0c0 -3.2383957 2.6252365 -5.863634 5.863632 -5.863634l23.453835 0l0 0c1.55513 0 3.0465698 0.61777496 4.1462173 1.7174187c1.0996399 1.0996456 1.7174149 2.5910835 1.7174149 4.1462154l0 24.020765c0 3.2383957 -2.6252365 5.863632 -5.863632 5.863632l-23.453835 0c-3.2383957 0 -5.863632 -2.6252365 -5.863632 -5.863632z" fill-rule="evenodd"/><path stroke="#1c4587" stroke-width="4.0" stroke-linejoin="round" stroke-linecap="butt" d="m87.537544 24.25385l0 0c0 -3.2383957 2.6252365 -5.863634 5.863632 -5.863634l23.453835 0l0 0c1.55513 0 3.0465698 0.61777496 4.1462173 1.7174187c1.0996399 1.0996456 1.7174149 2.5910835 1.7174149 4.1462154l0 24.020765c0 3.2383957 -2.6252365 5.863632 -5.863632 5.863632l-23.453835 0c-3.2383957 0 -5.863632 -2.6252365 -5.863632 -5.863632z" fill-rule="evenodd"/><path fill="#1c4587" d="m96.332726 26.57208l17.6063 0l0 19.37008l-17.6063 0z" fill-rule="evenodd"/><path stroke="#000000" stroke-width="1.0" stroke-linejoin="round" stroke-linecap="butt" d="m96.332726 26.57208l17.6063 0l0 19.37008l-17.6063 0z" fill-rule="evenodd"/><path fill="#000000" fill-opacity="0.0" d="m105.12809 18.390217l0 -13.921259" fill-rule="evenodd"/><path stroke="#1c4587" stroke-width="4.0" stroke-linejoin="round" stroke-linecap="butt" d="m105.12809 18.390217l0 -13.921259" fill-rule="evenodd"/><path fill="#000000" fill-opacity="0.0" d="m113.93698 18.390217l0 -13.921259" fill-rule="evenodd"/><path stroke="#1c4587" stroke-width="4.0" stroke-linejoin="round" stroke-linecap="butt" d="m113.93698 18.390217l0 -13.921259" fill-rule="evenodd"/><path fill="#000000" fill-opacity="0.0" d="m96.332726 18.390217l0 -13.921259" fill-rule="evenodd"/><path stroke="#1c4587" stroke-width="4.0" stroke-linejoin="round" stroke-linecap="butt" d="m96.332726 18.390217l0 -13.921259" fill-rule="evenodd"/><path fill="#cfe2f3" d="m110.84096 4.8648357l0 0c0 -1.9221246 1.4947357 -3.4803147 3.338585 -3.4803147l0 0c0.8854523 0 1.7346268 0.36667502 2.360733 1.0193605c0.62610626 0.6526859 0.97785187 1.5379174 0.97785187 2.4609542l0 0c0 1.9221249 -1.4947357 3.4803152 -3.338585 3.4803152l0 0c-1.8438492 0 -3.338585 -1.5581903 -3.338585 -3.4803152z" fill-rule="evenodd"/><path stroke="#000000" stroke-width="1.0" stroke-linejoin="round" stroke-linecap="butt" d="m110.84096 4.8648357l0 0c0 -1.9221246 1.4947357 -3.4803147 3.338585 -3.4803147l0 0c0.8854523 0 1.7346268 0.36667502 2.360733 1.0193605c0.62610626 0.6526859 0.97785187 1.5379174 0.97785187 2.4609542l0 0c0 1.9221249 -1.4947357 3.4803152 -3.338585 3.4803152l0 0c-1.8438492 0 -3.338585 -1.5581903 -3.338585 -3.4803152z" fill-rule="evenodd"/><path fill="#cfe2f3" d="m101.475426 4.8648357l0 0c0 -1.9221246 1.4947357 -3.4803147 3.338585 -3.4803147l0 0c0.88544464 0 1.7346268 0.36667502 2.360733 1.0193605c0.62610626 0.6526859 0.97785187 1.5379174 0.97785187 2.4609542l0 0c0 1.9221249 -1.4947357 3.4803152 -3.338585 3.4803152l0 0c-1.8438492 0 -3.338585 -1.5581903 -3.338585 -3.4803152z" fill-rule="evenodd"/><path stroke="#000000" stroke-width="1.0" stroke-linejoin="round" stroke-linecap="butt" d="m101.475426 4.8648357l0 0c0 -1.9221246 1.4947357 -3.4803147 3.338585 -3.4803147l0 0c0.88544464 0 1.7346268 0.36667502 2.360733 1.0193605c0.62610626 0.6526859 0.97785187 1.5379174 0.97785187 2.4609542l0 0c0 1.9221249 -1.4947357 3.4803152 -3.338585 3.4803152l0 0c-1.8438492 0 -3.338585 -1.5581903 -3.338585 -3.4803152z" fill-rule="evenodd"/><path fill="#cfe2f3" d="m92.15477 4.8648357l0 0c0 -1.9221246 1.4947357 -3.4803147 3.338585 -3.4803147l0 0c0.88544464 0 1.7346268 0.36667502 2.360733 1.0193605c0.62610626 0.6526859 0.97785187 1.5379174 0.97785187 2.4609542l0 0c0 1.9221249 -1.4947357 3.4803152 -3.338585 3.4803152l0 0c-1.8438492 0 -3.338585 -1.5581903 -3.338585 -3.4803152z" fill-rule="evenodd"/><path stroke="#000000" stroke-width="1.0" stroke-linejoin="round" stroke-linecap="butt" d="m92.15477 4.8648357l0 0c0 -1.9221246 1.4947357 -3.4803147 3.338585 -3.4803147l0 0c0.88544464 0 1.7346268 0.36667502 2.360733 1.0193605c0.62610626 0.6526859 0.97785187 1.5379174 0.97785187 2.4609542l0 0c0 1.9221249 -1.4947357 3.4803152 -3.338585 3.4803152l0 0c-1.8438492 0 -3.338585 -1.5581903 -3.338585 -3.4803152z" fill-rule="evenodd"/><path fill="#000000" fill-opacity="0.0" d="m122.69658 36.04391l13.952759 0" fill-rule="evenodd"/><path stroke="#1c4587" stroke-width="4.0" stroke-linejoin="round" stroke-linecap="butt" d="m122.69658 36.04391l13.952759 0" fill-rule="evenodd"/><path fill="#000000" fill-opacity="0.0" d="m122.69658 44.83595l13.952759 0" fill-rule="evenodd"/><path stroke="#1c4587" stroke-width="4.0" stroke-linejoin="round" stroke-linecap="butt" d="m122.69658 44.83595l13.952759 0" fill-rule="evenodd"/><path fill="#000000" fill-opacity="0.0" d="m122.69658 27.251875l13.952759 0" fill-rule="evenodd"/><path stroke="#1c4587" stroke-width="4.0" stroke-linejoin="round" stroke-linecap="butt" d="m122.69658 27.251875l13.952759 0" fill-rule="evenodd"/><path fill="#cfe2f3" d="m136.20998 41.80142l0 0c1.9395142 0 3.5118103 1.4876862 3.5118103 3.3228378l0 0c0 0.88126755 -0.36999512 1.7264442 -1.028595 2.349598c-0.6585846 0.6231537 -1.5518341 0.9732361 -2.4832153 0.9732361l0 0c-1.9395294 0 -3.5118103 -1.4876862 -3.5118103 -3.322834l0 0c0 -1.8351517 1.5722809 -3.3228378 3.5118103 -3.3228378z" fill-rule="evenodd"/><path stroke="#000000" stroke-width="1.0" stroke-linejoin="round" stroke-linecap="butt" d="m136.20998 41.80142l0 0c1.9395142 0 3.5118103 1.4876862 3.5118103 3.3228378l0 0c0 0.88126755 -0.36999512 1.7264442 -1.028595 2.349598c-0.6585846 0.6231537 -1.5518341 0.9732361 -2.4832153 0.9732361l0 0c-1.9395294 0 -3.5118103 -1.4876862 -3.5118103 -3.322834l0 0c0 -1.8351517 1.5722809 -3.3228378 3.5118103 -3.3228378z" fill-rule="evenodd"/><path fill="#cfe2f3" d="m136.20998 32.446617l0 0c1.9395142 0 3.5118103 1.4876862 3.5118103 3.3228378l0 0c0 0.88126755 -0.36999512 1.7264442 -1.028595 2.349598c-0.6585846 0.6231537 -1.5518341 0.9732361 -2.4832153 0.9732361l0 0c-1.9395294 0 -3.5118103 -1.4876862 -3.5118103 -3.322834l0 0c0 -1.8351517 1.5722809 -3.3228378 3.5118103 -3.3228378z" fill-rule="evenodd"/><path stroke="#000000" stroke-width="1.0" stroke-linejoin="round" stroke-linecap="butt" d="m136.20998 32.446617l0 0c1.9395142 0 3.5118103 1.4876862 3.5118103 3.3228378l0 0c0 0.88126755 -0.36999512 1.7264442 -1.028595 2.349598c-0.6585846 0.6231537 -1.5518341 0.9732361 -2.4832153 0.9732361l0 0c-1.9395294 0 -3.5118103 -1.4876862 -3.5118103 -3.322834l0 0c0 -1.8351517 1.5722809 -3.3228378 3.5118103 -3.3228378z" fill-rule="evenodd"/><path fill="#cfe2f3" d="m136.20998 24.18961l0 0c1.9395142 0 3.5118103 1.4876842 3.5118103 3.322834l0 0c0 0.88127136 -0.36999512 1.726448 -1.028595 2.3495998c-0.6585846 0.6231518 -1.5518341 0.9732361 -2.4832153 0.9732361l0 0c-1.9395294 0 -3.5118103 -1.4876842 -3.5118103 -3.322836l0 0c0 -1.8351498 1.5722809 -3.322834 3.5118103 -3.322834z" fill-rule="evenodd"/><path stroke="#000000" stroke-width="1.0" stroke-linejoin="round" stroke-linecap="butt" d="m136.20998 24.18961l0 0c1.9395142 0 3.5118103 1.4876842 3.5118103 3.322834l0 0c0 0.88127136 -0.36999512 1.726448 -1.028595 2.3495998c-0.6585846 0.6231518 -1.5518341 0.9732361 -2.4832153 0.9732361l0 0c-1.9395294 0 -3.5118103 -1.4876842 -3.5118103 -3.322836l0 0c0 -1.8351498 1.5722809 -3.322834 3.5118103 -3.322834z" fill-rule="evenodd"/><path fill="#000000" fill-opacity="0.0" d="m86.82573 36.50154l-13.952751 0" fill-rule="evenodd"/><path stroke="#1c4587" stroke-width="4.0" stroke-linejoin="round" stroke-linecap="butt" d="m86.82573 36.50154l-13.952751 0" fill-rule="evenodd"/><path fill="#000000" fill-opacity="0.0" d="m86.82573 27.709503l-13.952751 0" fill-rule="evenodd"/><path stroke="#1c4587" stroke-width="4.0" stroke-linejoin="round" stroke-linecap="butt" d="m86.82573 27.709503l-13.952751 0" fill-rule="evenodd"/><path fill="#000000" fill-opacity="0.0" d="m86.82573 45.29358l-13.952751 0" fill-rule="evenodd"/><path stroke="#1c4587" stroke-width="4.0" stroke-linejoin="round" stroke-linecap="butt" d="m86.82573 45.29358l-13.952751 0" fill-rule="evenodd"/><path fill="#cfe2f3" d="m73.31233 30.801971l0 0c-1.9395142 0 -3.5118103 -1.4876842 -3.5118103 -3.322834l0 0c0 -0.88127136 0.36999512 -1.726448 1.0285873 -2.3495998c0.6585922 -0.6231518 1.5518341 -0.9732361 2.483223 -0.9732361l0 0c1.9395218 0 3.511818 1.4876842 3.511818 3.322836l0 0c0 1.8351498 -1.5722961 3.322834 -3.511818 3.322834z" fill-rule="evenodd"/><path stroke="#000000" stroke-width="1.0" stroke-linejoin="round" stroke-linecap="butt" d="m73.31233 30.801971l0 0c-1.9395142 0 -3.5118103 -1.4876842 -3.5118103 -3.322834l0 0c0 -0.88127136 0.36999512 -1.726448 1.0285873 -2.3495998c0.6585922 -0.6231518 1.5518341 -0.9732361 2.483223 -0.9732361l0 0c1.9395218 0 3.511818 1.4876842 3.511818 3.322836l0 0c0 1.8351498 -1.5722961 3.322834 -3.511818 3.322834z" fill-rule="evenodd"/><path fill="#cfe2f3" d="m73.31233 40.156773l0 0c-1.9395142 0 -3.5118103 -1.4876862 -3.5118103 -3.322834l0 0c0 -0.88127136 0.36999512 -1.726448 1.0285873 -2.3496017c0.6585922 -0.6231499 1.5518341 -0.9732361 2.483223 -0.9732361l0 0c1.9395218 0 3.511818 1.4876862 3.511818 3.3228378l0 0c0 1.8351479 -1.5722961 3.322834 -3.511818 3.322834z" fill-rule="evenodd"/><path stroke="#000000" stroke-width="1.0" stroke-linejoin="round" stroke-linecap="butt" d="m73.31233 40.156773l0 0c-1.9395142 0 -3.5118103 -1.4876862 -3.5118103 -3.322834l0 0c0 -0.88127136 0.36999512 -1.726448 1.0285873 -2.3496017c0.6585922 -0.6231499 1.5518341 -0.9732361 2.483223 -0.9732361l0 0c1.9395218 0 3.511818 1.4876862 3.511818 3.3228378l0 0c0 1.8351479 -1.5722961 3.322834 -3.511818 3.322834z" fill-rule="evenodd"/><path fill="#cfe2f3" d="m73.31233 49.467953l0 0c-1.9395142 0 -3.5118103 -1.4876823 -3.5118103 -3.322834l0 0c0 -0.88127136 0.36999512 -1.7264442 1.0285873 -2.349598c0.6585922 -0.6231537 1.5518341 -0.9732361 2.483223 -0.9732361l0 0c1.9395218 0 3.511818 1.4876823 3.511818 3.322834l0 0c0 1.8351517 -1.5722961 3.322834 -3.511818 3.322834z" fill-rule="evenodd"/><path stroke="#000000" stroke-width="1.0" stroke-linejoin="round" stroke-linecap="butt" d="m73.31233 49.467953l0 0c-1.9395142 0 -3.5118103 -1.4876823 -3.5118103 -3.322834l0 0c0 -0.88127136 0.36999512 -1.7264442 1.0285873 -2.349598c0.6585922 -0.6231537 1.5518341 -0.9732361 2.483223 -0.9732361l0 0c1.9395218 0 3.511818 1.4876823 3.511818 3.322834l0 0c0 1.8351517 -1.5722961 3.322834 -3.511818 3.322834z" fill-rule="evenodd"/><path fill="#0b5394" d="m51.488426 4.5470653l11.716537 0l0 101.44882l-11.716537 0z" fill-rule="evenodd"/><path fill="#000000" fill-opacity="0.0" d="m96.54964 52.64151l0 10.929134" fill-rule="evenodd"/><path stroke="#1c4587" stroke-width="4.0" stroke-linejoin="round" stroke-linecap="butt" d="m96.54964 52.64151l0 10.929134" fill-rule="evenodd"/><path fill="#000000" fill-opacity="0.0" d="m112.19434 52.64151l0 10.929134" fill-rule="evenodd"/><path stroke="#1c4587" stroke-width="4.0" stroke-linejoin="round" stroke-linecap="butt" d="m112.19434 52.64151l0 10.929134" fill-rule="evenodd"/><path fill="#000000" fill-opacity="0.0" d="m96.54964 61.69345l-11.464561 16.409447" fill-rule="evenodd"/><path stroke="#1c4587" stroke-width="4.0" stroke-linejoin="round" stroke-linecap="butt" d="m96.54964 61.69345l-11.464561 16.409447" fill-rule="evenodd"/><path fill="#000000" fill-opacity="0.0" d="m112.19434 62.187054l9.1653595 15.370075" fill-rule="evenodd"/><path stroke="#1c4587" stroke-width="4.0" stroke-linejoin="round" stroke-linecap="butt" d="m112.19434 62.187054l9.1653595 15.370075" fill-rule="evenodd"/><path fill="#000000" fill-opacity="0.0" d="m85.16725 76.900894l0 33.07086" fill-rule="evenodd"/><path stroke="#1c4587" stroke-width="4.0" stroke-linejoin="round" stroke-linecap="butt" d="m85.16725 76.900894l0 33.07086" fill-rule="evenodd"/><path fill="#000000" fill-opacity="0.0" d="m121.37293 76.900894l0 33.07086" fill-rule="evenodd"/><path stroke="#1c4587" stroke-width="4.0" stroke-linejoin="round" stroke-linecap="butt" d="m121.37293 76.900894l0 33.07086" fill-rule="evenodd"/><path fill="#cfe2f3" d="m124.38472 106.487015l0 0c0 1.9221268 -1.4947357 3.4803162 -3.338585 3.4803162l0 0c-0.88544464 0 -1.7346268 -0.36667633 -2.360733 -1.0193558c-0.62610626 -0.6526871 -0.97785187 -1.5379181 -0.97785187 -2.4609604l0 0c0 -1.9221191 1.4947357 -3.4803162 3.338585 -3.4803162l0 0c1.8438492 0 3.338585 1.558197 3.338585 3.4803162z" fill-rule="evenodd"/><path stroke="#000000" stroke-width="1.0" stroke-linejoin="round" stroke-linecap="butt" d="m124.38472 106.487015l0 0c0 1.9221268 -1.4947357 3.4803162 -3.338585 3.4803162l0 0c-0.88544464 0 -1.7346268 -0.36667633 -2.360733 -1.0193558c-0.62610626 -0.6526871 -0.97785187 -1.5379181 -0.97785187 -2.4609604l0 0c0 -1.9221191 1.4947357 -3.4803162 3.338585 -3.4803162l0 0c1.8438492 0 3.338585 1.558197 3.338585 3.4803162z" fill-rule="evenodd"/><path fill="#cfe2f3" d="m88.73174 107.13161l0 0c0 1.9221268 -1.4947357 3.4803162 -3.338585 3.4803162l0 0c-0.88544464 0 -1.7346268 -0.36667633 -2.360733 -1.0193634c-0.62610626 -0.65267944 -0.97784424 -1.5379105 -0.97784424 -2.4609528l0 0c0 -1.9221268 1.4947281 -3.4803162 3.3385773 -3.4803162l0 0c1.8438492 0 3.338585 1.5581894 3.338585 3.4803162z" fill-rule="evenodd"/><path stroke="#000000" stroke-width="1.0" stroke-linejoin="round" stroke-linecap="butt" d="m88.73174 107.13161l0 0c0 1.9221268 -1.4947357 3.4803162 -3.338585 3.4803162l0 0c-0.88544464 0 -1.7346268 -0.36667633 -2.360733 -1.0193634c-0.62610626 -0.65267944 -0.97784424 -1.5379105 -0.97784424 -2.4609528l0 0c0 -1.9221268 1.4947281 -3.4803162 3.3385773 -3.4803162l0 0c1.8438492 0 3.338585 1.5581894 3.338585 3.4803162z" fill-rule="evenodd"/><path fill="#0b5394" d="m62.149605 54.29248l0 10.204727l-52.724407 0l0 -10.204727z" fill-rule="evenodd"/><path fill="#0b5394" d="m211.84631 6.175873l11.748032 0l0 100.97638l-11.748032 0z" fill-rule="evenodd"/><path fill="#000000" fill-opacity="0.0" d="m-9.139549 118.70738l289.7323 0l0 58.614166l-289.7323 0z" fill-rule="evenodd"/><path fill="#0b5394" d="m5.0152664 152.02737l0 -18.125l3.65625 0l0 7.125l7.171875 0l0 -7.125l3.65625 0l0 18.125l-3.65625 0l0 -7.921875l-7.171875 0l0 7.921875l-3.65625 0zm20.853668 -9.125l-3.15625 -0.578125q0.53125 -1.890625 1.828125 -2.8125q1.296875 -0.921875 3.859375 -0.921875q2.328125 0 3.453125 0.5625q1.140625 0.546875 1.609375 1.390625q0.46875 0.84375 0.46875 3.109375l-0.046875 4.0625q0 1.734375 0.171875 2.5625q0.171875 0.8125 0.625 1.75l-3.4375 0q-0.140625 -0.34375 -0.328125 -1.03125q-0.09375 -0.296875 -0.125 -0.40625q-0.890625 0.875 -1.90625 1.3125q-1.015625 0.421875 -2.171875 0.421875q-2.03125 0 -3.203125 -1.09375q-1.15625 -1.109375 -1.15625 -2.796875q0 -1.109375 0.53125 -1.96875q0.53125 -0.875 1.484375 -1.34375q0.96875 -0.46875 2.765625 -0.8125q2.4375 -0.453125 3.375 -0.859375l0 -0.34375q0 -1.0 -0.5 -1.421875q-0.484375 -0.421875 -1.859375 -0.421875q-0.921875 0 -1.453125 0.359375q-0.515625 0.359375 -0.828125 1.28125zm4.640625 2.8125q-0.671875 0.234375 -2.125 0.546875q-1.4375 0.296875 -1.875 0.59375q-0.6875 0.484375 -0.6875 1.234375q0 0.71875 0.546875 1.25q0.546875 0.53125 1.390625 0.53125q0.9375 0 1.78125 -0.609375q0.640625 -0.46875 0.828125 -1.15625q0.140625 -0.4375 0.140625 -1.6875l0 -0.703125zm10.164429 6.3125l-3.46875 0l0 -13.140625l3.21875 0l0 1.875q0.828125 -1.328125 1.484375 -1.75q0.671875 -0.421875 1.515625 -0.421875q1.1875 0 2.28125 0.65625l-1.0625 3.03125q-0.890625 -0.5625 -1.640625 -0.5625q-0.734375 0 -1.25 0.40625q-0.5 0.390625 -0.796875 1.453125q-0.28125 1.046875 -0.28125 4.390625l0 4.0625zm18.575455 0l-3.21875 0l0 -1.921875q-0.8125 1.125 -1.90625 1.671875q-1.09375 0.546875 -2.203125 0.546875q-2.265625 0 -3.890625 -1.8125q-1.609375 -1.828125 -1.609375 -5.09375q0 -3.34375 1.578125 -5.078125q1.578125 -1.75 3.96875 -1.75q2.203125 0 3.8125 1.84375l0 -6.53125l3.46875 0l0 18.125zm-9.265625 -6.84375q0 2.09375 0.578125 3.03125q0.84375 1.359375 2.34375 1.359375q1.203125 0 2.046875 -1.015625q0.84375 -1.015625 0.84375 -3.046875q0 -2.265625 -0.828125 -3.25q-0.8125 -1.0 -2.078125 -1.0q-1.234375 0 -2.078125 0.984375q-0.828125 0.96875 -0.828125 2.9375zm15.143311 6.84375l-4.15625 -13.140625l3.375 0l2.46875 8.609375l2.265625 -8.609375l3.34375 0l2.1875 8.609375l2.515625 -8.609375l3.421875 0l-4.21875 13.140625l-3.34375 0l-2.25 -8.453125l-2.234375 8.453125l-3.375 0zm19.857285 -9.125l-3.15625 -0.578125q0.53125 -1.890625 1.828125 -2.8125q1.296875 -0.921875 3.859375 -0.921875q2.328125 0 3.453125 0.5625q1.140625 0.546875 1.609375 1.390625q0.46875 0.84375 0.46875 3.109375l-0.046875 4.0625q0 1.734375 0.171875 2.5625q0.171875 0.8125 0.625 1.75l-3.4375 0q-0.140625 -0.34375 -0.328125 -1.03125q-0.09375 -0.296875 -0.125 -0.40625q-0.890625 0.875 -1.90625 1.3125q-1.015625 0.421875 -2.171875 0.421875q-2.03125 0 -3.203125 -1.09375q-1.15625 -1.109375 -1.15625 -2.796875q0 -1.109375 0.53125 -1.96875q0.53125 -0.875 1.484375 -1.34375q0.96875 -0.46875 2.765625 -0.8125q2.4375 -0.453125 3.375 -0.859375l0 -0.34375q0 -1.0 -0.5 -1.421875q-0.484375 -0.421875 -1.859375 -0.421875q-0.921875 0 -1.453125 0.359375q-0.515625 0.359375 -0.828125 1.28125zm4.640625 2.8125q-0.671875 0.234375 -2.125 0.546875q-1.4375 0.296875 -1.875 0.59375q-0.6875 0.484375 -0.6875 1.234375q0 0.71875 0.546875 1.25q0.546875 0.53125 1.390625 0.53125q0.9375 0 1.78125 -0.609375q0.640625 -0.46875 0.828125 -1.15625q0.140625 -0.4375 0.140625 -1.6875l0 -0.703125zm10.164429 6.3125l-3.46875 0l0 -13.140625l3.21875 0l0 1.875q0.828125 -1.328125 1.484375 -1.75q0.671875 -0.421875 1.515625 -0.421875q1.1875 0 2.28125 0.65625l-1.0625 3.03125q-0.890625 -0.5625 -1.640625 -0.5625q-0.734375 0 -1.25 0.40625q-0.5 0.390625 -0.796875 1.453125q-0.28125 1.046875 -0.28125 4.390625l0 4.0625zm14.137955 -4.1875l3.46875 0.59375q-0.671875 1.90625 -2.109375 2.90625q-1.4375 0.984375 -3.609375 0.984375q-3.421875 0 -5.0625 -2.234375q-1.3125 -1.796875 -1.3125 -4.53125q0 -3.265625 1.703125 -5.109375q1.71875 -1.859375 4.328125 -1.859375q2.921875 0 4.609375 1.9375q1.703125 1.9375 1.640625 5.9375l-8.71875 0q0.046875 1.546875 0.84375 2.40625q0.8125 0.859375 2.0 0.859375q0.828125 0 1.375 -0.4375q0.5625 -0.453125 0.84375 -1.453125zm0.203125 -3.5q-0.046875 -1.515625 -0.796875 -2.296875q-0.734375 -0.78125 -1.796875 -0.78125q-1.125 0 -1.875 0.828125q-0.734375 0.828125 -0.734375 2.25l5.203125 0zm28.745674 7.6875l-3.984375 0l-1.578125 -4.125l-7.25 0l-1.484375 4.125l-3.8906326 0l7.0625076 -18.125l3.875 0l7.25 18.125zm-6.734375 -7.171875l-2.5 -6.734375l-2.453125 6.734375l4.953125 0zm20.103668 -2.078125l-3.421875 0.625q-0.171875 -1.03125 -0.78125 -1.546875q-0.609375 -0.53125 -1.59375 -0.53125q-1.296875 0 -2.078125 0.90625q-0.765625 0.890625 -0.765625 3.0q0 2.328125 0.78125 3.296875q0.796875 0.96875 2.109375 0.96875q1.0 0 1.625 -0.5625q0.625 -0.5625 0.890625 -1.9375l3.40625 0.578125q-0.53125 2.34375 -2.046875 3.546875q-1.5 1.203125 -4.03125 1.203125q-2.875 0 -4.59375 -1.8125q-1.71875 -1.828125 -1.71875 -5.03125q0 -3.265625 1.71875 -5.078125q1.71875 -1.8125 4.65625 -1.8125q2.390625 0 3.8125 1.046875q1.421875 1.03125 2.03125 3.140625zm14.086304 0l-3.421875 0.625q-0.171875 -1.03125 -0.78125 -1.546875q-0.609375 -0.53125 -1.59375 -0.53125q-1.296875 0 -2.078125 0.90625q-0.765625 0.890625 -0.765625 3.0q0 2.328125 0.78125 3.296875q0.796875 0.96875 2.109375 0.96875q1.0 0 1.625 -0.5625q0.625 -0.5625 0.890625 -1.9375l3.40625 0.578125q-0.53125 2.34375 -2.046875 3.546875q-1.5 1.203125 -4.03125 1.203125q-2.875 0 -4.59375 -1.8125q-1.71875 -1.828125 -1.71875 -5.03125q0 -3.265625 1.71875 -5.078125q1.71875 -1.8125 4.65625 -1.8125q2.390625 0 3.8125 1.046875q1.421875 1.03125 2.03125 3.140625zm10.242554 5.0625l3.46875 0.59375q-0.671875 1.90625 -2.109375 2.90625q-1.4375 0.984375 -3.609375 0.984375q-3.421875 0 -5.0625 -2.234375q-1.3125 -1.796875 -1.3125 -4.53125q0 -3.265625 1.703125 -5.109375q1.71875 -1.859375 4.328125 -1.859375q2.921875 0 4.609375 1.9375q1.703125 1.9375 1.640625 5.9375l-8.71875 0q0.046875 1.546875 0.84375 2.40625q0.8125 0.859375 2.0 0.859375q0.828125 0 1.375 -0.4375q0.5625 -0.453125 0.84375 -1.453125zm0.203125 -3.5q-0.046875 -1.515625 -0.796875 -2.296875q-0.734375 -0.78125 -1.796875 -0.78125q-1.125 0 -1.875 0.828125q-0.734375 0.828125 -0.734375 2.25l5.203125 0zm6.2738037 7.6875l0 -18.125l3.484375 0l0 18.125l-3.484375 0zm14.646347 -4.1875l3.46875 0.59375q-0.671875 1.90625 -2.109375 2.90625q-1.4375 0.984375 -3.609375 0.984375q-3.421875 0 -5.0625 -2.234375q-1.3125 -1.796875 -1.3125 -4.53125q0 -3.265625 1.703125 -5.109375q1.71875 -1.859375 4.328125 -1.859375q2.921875 0 4.609375 1.9375q1.703125 1.9375 1.640625 5.9375l-8.71875 0q0.046875 1.546875 0.84375 2.40625q0.8125 0.859375 2.0 0.859375q0.828125 0 1.375 -0.4375q0.5625 -0.453125 0.84375 -1.453125zm0.203125 -3.5q-0.046875 -1.515625 -0.796875 -2.296875q-0.734375 -0.78125 -1.796875 -0.78125q-1.125 0 -1.875 0.828125q-0.734375 0.828125 -0.734375 2.25l5.203125 0zm9.601929 7.6875l-3.46875 0l0 -13.140625l3.21875 0l0 1.875q0.828125 -1.328125 1.484375 -1.75q0.671875 -0.421875 1.515625 -0.421875q1.1875 0 2.28125 0.65625l-1.0625 3.03125q-0.890625 -0.5625 -1.640625 -0.5625q-0.734375 0 -1.25 0.40625q-0.5 0.390625 -0.796875 1.453125q-0.28125 1.046875 -0.28125 4.390625l0 4.0625zm9.137955 -9.125l-3.15625 -0.578125q0.53125 -1.890625 1.828125 -2.8125q1.296875 -0.921875 3.859375 -0.921875q2.328125 0 3.453125 0.5625q1.140625 0.546875 1.609375 1.390625q0.46875 0.84375 0.46875 3.109375l-0.046875 4.0625q0 1.734375 0.171875 2.5625q0.171875 0.8125 0.625 1.75l-3.4375 0q-0.140625 -0.34375 -0.328125 -1.03125q-0.09375 -0.296875 -0.125 -0.40625q-0.890625 0.875 -1.90625 1.3125q-1.015625 0.421875 -2.171875 0.421875q-2.03125 0 -3.203125 -1.09375q-1.15625 -1.109375 -1.15625 -2.796875q0 -1.109375 0.53125 -1.96875q0.53125 -0.875 1.484375 -1.34375q0.96875 -0.46875 2.765625 -0.8125q2.4375 -0.453125 3.375 -0.859375l0 -0.34375q0 -1.0 -0.5 -1.421875q-0.484375 -0.421875 -1.859375 -0.421875q-0.921875 0 -1.453125 0.359375q-0.515625 0.359375 -0.828125 1.28125zm4.640625 2.8125q-0.671875 0.234375 -2.125 0.546875q-1.4375 0.296875 -1.875 0.59375q-0.6875 0.484375 -0.6875 1.234375q0 0.71875 0.546875 1.25q0.546875 0.53125 1.390625 0.53125q0.9375 0 1.78125 -0.609375q0.640625 -0.46875 0.828125 -1.15625q0.140625 -0.4375 0.140625 -1.6875l0 -0.703125zm12.867554 -6.828125l0 2.78125l-2.375 0l0 5.28125q0 1.609375 0.0625 1.875q0.078125 0.265625 0.3125 0.453125q0.234375 0.171875 0.59375 0.171875q0.46875 0 1.390625 -0.34375l0.296875 2.703125q-1.21875 0.515625 -2.75 0.515625q-0.9375 0 -1.6875 -0.3125q-0.75 -0.3125 -1.109375 -0.8125q-0.359375 -0.5 -0.484375 -1.359375q-0.109375 -0.609375 -0.109375 -2.453125l0 -5.71875l-1.59375 0l0 -2.78125l1.59375 0l0 -2.609375l3.484375 -2.015625l0 4.625l2.375 0zm10.0125885 8.953125l3.46875 0.59375q-0.671875 1.90625 -2.109375 2.90625q-1.4375 0.984375 -3.609375 0.984375q-3.421875 0 -5.0625 -2.234375q-1.3125 -1.796875 -1.3125 -4.53125q0 -3.265625 1.703125 -5.109375q1.71875 -1.859375 4.328125 -1.859375q2.921875 0 4.609375 1.9375q1.703125 1.9375 1.640625 5.9375l-8.71875 0q0.046875 1.546875 0.84375 2.40625q0.8125 0.859375 2.0 0.859375q0.828125 0 1.375 -0.4375q0.5625 -0.453125 0.84375 -1.453125zm0.203125 -3.5q-0.046875 -1.515625 -0.796875 -2.296875q-0.734375 -0.78125 -1.796875 -0.78125q-1.125 0 -1.875 0.828125q-0.734375 0.828125 -0.734375 2.25l5.203125 0zm18.320663 7.6875l-3.21875 0l0 -1.921875q-0.8125 1.125 -1.90625 1.671875q-1.09375 0.546875 -2.203125 0.546875q-2.265625 0 -3.8906097 -1.8125q-1.609375 -1.828125 -1.609375 -5.09375q0 -3.34375 1.578125 -5.078125q1.5781097 -1.75 3.9687347 -1.75q2.203125 0 3.8125 1.84375l0 -6.53125l3.46875 0l0 18.125zm-9.265625 -6.84375q0 2.09375 0.578125 3.03125q0.84375 1.359375 2.34375 1.359375q1.203125 0 2.046875 -1.015625q0.84375 -1.015625 0.84375 -3.046875q0 -2.265625 -0.828125 -3.25q-0.8125 -1.0 -2.078125 -1.0q-1.234375 0 -2.078125 0.984375q-0.828125 0.96875 -0.828125 2.9375z" fill-rule="nonzero"/><path fill="#0b5394" d="m17.58886 175.3555l3.5625 1.125q-0.828125 2.96875 -2.734375 4.421875q-1.890625 1.4375 -4.796875 1.4375q-3.625 0 -5.953125 -2.46875q-2.3125 -2.46875 -2.3125 -6.75q0 -4.53125 2.328125 -7.03125q2.34375 -2.5 6.15625 -2.5q3.328125 0 5.40625 1.96875q1.234375 1.15625 1.84375 3.328125l-3.625 0.875q-0.3125 -1.40625 -1.34375 -2.21875q-1.015625 -0.828125 -2.46875 -0.828125q-2.015625 0 -3.28125 1.453125q-1.25 1.4375 -1.25 4.6875q0 3.4375 1.234375 4.90625q1.234375 1.453125 3.21875 1.453125q1.46875 0 2.515625 -0.921875q1.046875 -0.9375 1.5 -2.9375zm5.869293 -0.078125q0 -1.734375 0.84375 -3.34375q0.859375 -1.625 2.421875 -2.484375q1.5625 -0.859375 3.5 -0.859375q2.984375 0 4.875 1.9375q1.90625 1.9375 1.90625 4.890625q0 2.984375 -1.921875 4.953125q-1.921875 1.953125 -4.84375 1.953125q-1.796875 0 -3.4375 -0.8125q-1.640625 -0.8125 -2.5 -2.390625q-0.84375 -1.578125 -0.84375 -3.84375zm3.5625 0.1875q0 1.953125 0.921875 3.0q0.9375 1.03125 2.296875 1.03125q1.359375 0 2.28125 -1.03125q0.921875 -1.046875 0.921875 -3.03125q0 -1.921875 -0.921875 -2.953125q-0.921875 -1.046875 -2.28125 -1.046875q-1.359375 0 -2.296875 1.046875q-0.921875 1.03125 -0.921875 2.984375zm12.455811 -6.578125l3.203125 0l0 1.796875q1.71875 -2.09375 4.09375 -2.09375q1.25 0 2.171875 0.53125q0.9375 0.515625 1.53125 1.5625q0.875 -1.046875 1.875 -1.5625q1.0 -0.53125 2.140625 -0.53125q1.4375 0 2.4375 0.59375q1.0 0.59375 1.5 1.71875q0.359375 0.84375 0.359375 2.734375l0 8.390625l-3.46875 0l0 -7.5q0 -1.96875 -0.359375 -2.53125q-0.484375 -0.734375 -1.484375 -0.734375q-0.734375 0 -1.375 0.453125q-0.640625 0.4375 -0.9375 1.296875q-0.28125 0.859375 -0.28125 2.703125l0 6.3125l-3.46875 0l0 -7.203125q0 -1.90625 -0.1875 -2.46875q-0.1875 -0.5625 -0.578125 -0.828125q-0.390625 -0.265625 -1.046875 -0.265625q-0.8125 0 -1.453125 0.4375q-0.640625 0.421875 -0.921875 1.234375q-0.28125 0.8125 -0.28125 2.71875l0 6.375l-3.46875 0l0 -13.140625zm22.677017 0l3.234375 0l0 1.9375q0.640625 -0.984375 1.703125 -1.609375q1.078125 -0.625 2.390625 -0.625q2.296875 0 3.890625 1.796875q1.59375 1.796875 1.59375 5.0q0 3.296875 -1.609375 5.125q-1.609375 1.8125 -3.890625 1.8125q-1.09375 0 -1.984375 -0.421875q-0.875 -0.4375 -1.859375 -1.5l0 6.625l-3.46875 0l0 -18.140625zm3.4375 6.34375q0 2.21875 0.875 3.28125q0.875 1.046875 2.140625 1.046875q1.21875 0 2.015625 -0.96875q0.8125 -0.96875 0.8125 -3.171875q0 -2.078125 -0.828125 -3.078125q-0.828125 -1.0 -2.0625 -1.0q-1.265625 0 -2.109375 0.984375q-0.84375 0.984375 -0.84375 2.90625zm20.783936 6.796875l0 -1.96875q-0.71875 1.046875 -1.890625 1.65625q-1.171875 0.609375 -2.46875 0.609375q-1.328125 0 -2.375 -0.578125q-1.046875 -0.578125 -1.515625 -1.625q-0.46875 -1.0625 -0.46875 -2.921875l0 -8.3125l3.46875 0l0 6.046875q0 2.765625 0.1875 3.390625q0.203125 0.625 0.703125 1.0q0.5 0.359375 1.28125 0.359375q0.890625 0 1.59375 -0.484375q0.71875 -0.5 0.96875 -1.21875q0.265625 -0.734375 0.265625 -3.546875l0 -5.546875l3.46875 0l0 13.140625l-3.21875 0zm12.846436 -13.140625l0 2.78125l-2.375 0l0 5.28125q0 1.609375 0.0625 1.875q0.078125 0.265625 0.3125 0.453125q0.234375 0.171875 0.59375 0.171875q0.46875 0 1.390625 -0.34375l0.296875 2.703125q-1.21875 0.515625 -2.75 0.515625q-0.9375 0 -1.6875 -0.3125q-0.75 -0.3125 -1.109375 -0.8125q-0.359375 -0.5 -0.484375 -1.359375q-0.109375 -0.609375 -0.109375 -2.453125l0 -5.71875l-1.59375 0l0 -2.78125l1.59375 0l0 -2.609375l3.484375 -2.015625l0 4.625l2.375 0zm5.0125885 4.015625l-3.15625 -0.578125q0.53125 -1.890625 1.828125 -2.8125q1.296875 -0.921875 3.859375 -0.921875q2.328125 0 3.453125 0.5625q1.140625 0.546875 1.609375 1.390625q0.46875 0.84375 0.46875 3.109375l-0.046875 4.0625q0 1.734375 0.171875 2.5625q0.171875 0.8125 0.625 1.75l-3.4375 0q-0.140625 -0.34375 -0.328125 -1.03125q-0.09375 -0.296875 -0.125 -0.40625q-0.890625 0.875 -1.90625 1.3125q-1.015625 0.421875 -2.171875 0.421875q-2.03125 0 -3.203125 -1.09375q-1.15625 -1.109375 -1.15625 -2.796875q0 -1.109375 0.53125 -1.96875q0.53125 -0.875 1.484375 -1.34375q0.96875 -0.46875 2.765625 -0.8125q2.4375 -0.453125 3.375 -0.859375l0 -0.34375q0 -1.0 -0.5 -1.421875q-0.484375 -0.421875 -1.859375 -0.421875q-0.921875 0 -1.453125 0.359375q-0.515625 0.359375 -0.828125 1.28125zm4.640625 2.8125q-0.671875 0.234375 -2.125 0.546875q-1.4375 0.296875 -1.875 0.59375q-0.6875 0.484375 -0.6875 1.234375q0 0.71875 0.546875 1.25q0.546875 0.53125 1.390625 0.53125q0.9375 0 1.78125 -0.609375q0.640625 -0.46875 0.828125 -1.15625q0.140625 -0.4375 0.140625 -1.6875l0 -0.703125zm12.867554 -6.828125l0 2.78125l-2.375 0l0 5.28125q0 1.609375 0.0625 1.875q0.078125 0.265625 0.3125 0.453125q0.234375 0.171875 0.59375 0.171875q0.46875 0 1.390625 -0.34375l0.296875 2.703125q-1.21875 0.515625 -2.75 0.515625q-0.9375 0 -1.6875 -0.3125q-0.75 -0.3125 -1.109375 -0.8125q-0.359375 -0.5 -0.484375 -1.359375q-0.109375 -0.609375 -0.109375 -2.453125l0 -5.71875l-1.59375 0l0 -2.78125l1.59375 0l0 -2.609375l3.484375 -2.015625l0 4.625l2.375 0zm2.4032135 -1.78125l0 -3.203125l3.484375 0l0 3.203125l-3.484375 0zm0 14.921875l0 -13.140625l3.484375 0l0 13.140625l-3.484375 0zm6.2401047 -6.75q0 -1.734375 0.84375 -3.34375q0.859375 -1.625 2.421875 -2.484375q1.5625 -0.859375 3.5 -0.859375q2.984375 0 4.875 1.9375q1.90625 1.9375 1.90625 4.890625q0 2.984375 -1.921875 4.953125q-1.921875 1.953125 -4.84375 1.953125q-1.796875 0 -3.4375 -0.8125q-1.640625 -0.8125 -2.5 -2.390625q-0.84375 -1.578125 -0.84375 -3.84375zm3.5625 0.1875q0 1.953125 0.921875 3.0q0.9375 1.03125 2.296875 1.03125q1.359375 0 2.28125 -1.03125q0.921875 -1.046875 0.921875 -3.03125q0 -1.921875 -0.921875 -2.953125q-0.921875 -1.046875 -2.28125 -1.046875q-1.359375 0 -2.296875 1.046875q-0.921875 1.03125 -0.921875 2.984375zm24.658936 6.5625l-3.46875 0l0 -6.703125q0 -2.125 -0.234375 -2.75q-0.21875 -0.625 -0.71875 -0.96875q-0.5 -0.34375 -1.203125 -0.34375q-0.90625 0 -1.625 0.5q-0.71875 0.484375 -0.984375 1.296875q-0.265625 0.8125 -0.265625 3.015625l0 5.953125l-3.46875 0l0 -13.140625l3.21875 0l0 1.9375q1.71875 -2.234375 4.328125 -2.234375q1.15625 0 2.109375 0.421875q0.953125 0.40625 1.4375 1.0625q0.484375 0.640625 0.671875 1.453125q0.203125 0.8125 0.203125 2.34375l0 8.15625zm17.67038 0l0 -18.125l3.65625 0l0 8.046875l7.40625 -8.046875l4.921875 0l-6.828125 7.0625l7.1875 11.0625l-4.734375 0l-4.984375 -8.515625l-2.96875 3.03125l0 5.484375l-3.65625 0zm25.822418 -4.1875l3.46875 0.59375q-0.671875 1.90625 -2.109375 2.90625q-1.4375 0.984375 -3.609375 0.984375q-3.421875 0 -5.0625 -2.234375q-1.3125 -1.796875 -1.3125 -4.53125q0 -3.265625 1.703125 -5.109375q1.71875 -1.859375 4.328125 -1.859375q2.921875 0 4.609375 1.9375q1.703125 1.9375 1.640625 5.9375l-8.71875 0q0.046875 1.546875 0.84375 2.40625q0.8125 0.859375 2.0 0.859375q0.828125 0 1.375 -0.4375q0.5625 -0.453125 0.84375 -1.453125zm0.203125 -3.5q-0.046875 -1.515625 -0.796875 -2.296875q-0.734375 -0.78125 -1.796875 -0.78125q-1.125 0 -1.875 0.828125q-0.734375 0.828125 -0.734375 2.25l5.203125 0zm9.601929 7.6875l-3.46875 0l0 -13.140625l3.21875 0l0 1.875q0.828125 -1.328125 1.484375 -1.75q0.671875 -0.421875 1.515625 -0.421875q1.1875 0 2.28125 0.65625l-1.0625 3.03125q-0.890625 -0.5625 -1.640625 -0.5625q-0.734375 0 -1.25 0.40625q-0.5 0.390625 -0.796875 1.453125q-0.28125 1.046875 -0.28125 4.390625l0 4.0625zm18.481705 0l-3.46875 0l0 -6.703125q0 -2.125 -0.234375 -2.75q-0.21875 -0.625 -0.71875 -0.96875q-0.5 -0.34375 -1.203125 -0.34375q-0.90625 0 -1.625 0.5q-0.71875 0.484375 -0.984375 1.296875q-0.265625 0.8125 -0.265625 3.015625l0 5.953125l-3.46875 0l0 -13.140625l3.21875 0l0 1.9375q1.71875 -2.234375 4.328125 -2.234375q1.15625 0 2.109375 0.421875q0.953125 0.40625 1.4375 1.0625q0.484375 0.640625 0.671875 1.453125q0.203125 0.8125 0.203125 2.34375l0 8.15625zm11.127686 -4.1875l3.46875 0.59375q-0.671875 1.90625 -2.109375 2.90625q-1.4375 0.984375 -3.609375 0.984375q-3.421875 0 -5.0625 -2.234375q-1.3125 -1.796875 -1.3125 -4.53125q0 -3.265625 1.703125 -5.109375q1.71875 -1.859375 4.328125 -1.859375q2.921875 0 4.609375 1.9375q1.703125 1.9375 1.640625 5.9375l-8.71875 0q0.046875 1.546875 0.84375 2.40625q0.8125 0.859375 2.0 0.859375q0.828125 0 1.375 -0.4375q0.5625 -0.453125 0.84375 -1.453125zm0.203125 -3.5q-0.046875 -1.515625 -0.796875 -2.296875q-0.734375 -0.78125 -1.796875 -0.78125q-1.125 0 -1.875 0.828125q-0.734375 0.828125 -0.734375 2.25l5.203125 0zm6.2738037 7.6875l0 -18.125l3.484375 0l0 18.125l-3.484375 0zm5.818207 -3.75l3.4843597 -0.53125q0.21875 1.015625 0.90625 1.546875q0.6875 0.515625 1.90625 0.515625q1.34375 0 2.03125 -0.484375q0.453125 -0.359375 0.453125 -0.9375q0 -0.390625 -0.25 -0.65625q-0.25 -0.234375 -1.15625 -0.453125q-4.203125 -0.921875 -5.3281097 -1.6875q-1.5625 -1.0625 -1.5625 -2.96875q0 -1.703125 1.34375 -2.859375q1.3437347 -1.171875 4.1874847 -1.171875q2.6875 0 4.0 0.890625q1.3125 0.875 1.8125 2.59375l-3.28125 0.609375q-0.21875 -0.765625 -0.8125 -1.171875q-0.578125 -0.421875 -1.65625 -0.421875q-1.375 0 -1.96875 0.390625q-0.40625 0.265625 -0.40625 0.703125q0 0.375 0.359375 0.625q0.46875 0.34375 3.234375 0.984375q2.78125 0.625 3.890625 1.546875q1.078125 0.921875 1.078125 2.578125q0 1.8125 -1.515625 3.109375q-1.5 1.296875 -4.453125 1.296875q-2.6875 0 -4.2499847 -1.078125q-1.5625 -1.09375 -2.046875 -2.96875z" fill-rule="nonzero"/><path fill="#0b5394" d="m271.31995 2.6219819l0 0c0.8008423 -0.6834326 2.0987244 -0.6828033 2.8988953 0.001405716l5.795227 4.955331l0 0c0.38424683 0.32856846 0.6000061 0.774055 0.59976196 1.2384582c-2.1362305E-4 0.46440315 -0.21640015 0.90968037 -0.60098267 1.2378759l-58.32823 49.77704c-0.8008423 0.68343353 -2.0987244 0.6828041 -2.8988953 -0.0014038086l-5.795227 -4.9553337c-0.8001709 -0.6842079 -0.79963684 -1.7929001 0.0012054443 -2.4763336z" fill-rule="evenodd"/><path fill="#0b5394" d="m282.75677 102.21372l0 0c0.7539978 0.6433945 0.7541504 1.6867294 3.6621094E-4 2.3303452l-5.459259 4.6613693l0 0c-0.3619995 0.30908203 -0.8529968 0.48275757 -1.3649597 0.4828415c-0.5119934 7.6293945E-5 -1.0030518 -0.17346191 -1.3651123 -0.4824295l-62.11998 -53.008648c-0.75398254 -0.6433945 -0.75413513 -1.6867256 -3.5095215E-4 -2.3303452l5.459259 -4.6613693c0.75379944 -0.64361954 1.9760895 -0.64380264 2.730072 -4.119873E-4z" fill-rule="evenodd"/><path fill="#0b5394" d="m3.4884274 4.5470653l11.716536 0l0 101.44882l-11.716536 0z" fill-rule="evenodd"/><path fill="#0b5394" d="m290.9659 -4.329364l52.724396 0l0 198.67717l-52.724396 0z" fill-rule="evenodd"/><path stroke="#000000" stroke-width="1.0" stroke-linejoin="round" stroke-linecap="butt" d="m290.9659 -4.329364l52.724396 0l0 198.67717l-52.724396 0z" fill-rule="evenodd"/><path fill="#000000" fill-opacity="0.0" d="m-22.12336 125.326805l313.10236 0" fill-rule="evenodd"/><path stroke="#000000" stroke-width="1.0" stroke-linejoin="round" stroke-linecap="butt" d="m-22.12336 125.326805l313.10236 0" fill-rule="evenodd"/><path fill="#000000" fill-opacity="0.0" d="m337.85828 -1.2352197l-42.141754 0l0 186.55118l42.141754 0z" fill-rule="evenodd"/><path fill="#ffffff" d="m326.65402 28.505365l3.546875 0.90625q-1.109375 4.343752 -4.0 6.640627q-2.890625 2.28125 -7.0625 2.28125q-4.328125 0 -7.03125 -1.75q-2.703125 -1.765625 -4.125 -5.093752q-1.40625 -3.34375 -1.40625 -7.171875q0 -4.171875 1.59375 -7.28125q1.59375 -3.109375 4.53125 -4.71875q2.953125 -1.609375 6.484375 -1.609375q4.015625 0 6.75 2.046875q2.734375 2.03125 3.8125 5.734375l-3.484375 0.8125q-0.9375 -2.90625 -2.703125 -4.234375q-1.765625 -1.34375 -4.4375 -1.34375q-3.09375 0 -5.15625 1.484375q-2.0625 1.46875 -2.90625 3.96875q-0.84375 2.484375 -0.84375 5.125q0 3.40625 0.984375 5.953125q1.0 2.546877 3.09375 3.812502q2.109375 1.25 4.546875 1.25q2.96875 0 5.03125 -1.71875q2.0625 -1.7187519 2.78125 -5.093752z" fill-rule="nonzero"/><path fill="#ffffff" d="m309.14172 82.88036l0 -26.718746l3.53125 0l0 23.562496l13.15625 0l0 3.15625l-16.6875 0z" fill-rule="nonzero"/><path fill="#ffffff" d="m325.12277 101.16161l3.546875 0l0 15.4375q0 4.03125 -0.921875 6.40625q-0.90625 2.359375 -3.28125 3.84375q-2.375 1.4843826 -6.25 1.4843826q-3.75 0 -6.140625 -1.2812576q-2.390625 -1.296875 -3.40625 -3.75q-1.015625 -2.453125 -1.015625 -6.703125l0 -15.4375l3.53125 0l0 15.421875q0 3.484375 0.640625 5.140625q0.65625 1.640625 2.234375 2.53125q1.578125 0.890625 3.859375 0.890625q3.890625 0 5.546875 -1.765625q1.65625 -1.765625 1.65625 -6.796875l0 -15.421875z" fill-rule="nonzero"/><path fill="#ffffff" d="m307.4509 172.88037l0 -26.71875l10.03125 0q3.0625 0 4.90625 0.8125q1.84375 0.8125 2.890625 2.5q1.046875 1.6875 1.046875 3.515625q0 1.71875 -0.9375 3.234375q-0.921875 1.515625 -2.796875 2.4375q2.421875 0.71875 3.71875 2.4375q1.3125 1.703125 1.3125 4.03125q0 1.875 -0.796875 3.5q-0.78125 1.609375 -1.953125 2.484375q-1.171875 0.875 -2.9375 1.328125q-1.75 0.4375 -4.296875 0.4375l-10.1875 0zm3.53125 -15.5l5.78125 0q2.359375 0 3.375 -0.296875q1.34375 -0.40625 2.03125 -1.328125q0.6875 -0.9375 0.6875 -2.34375q0 -1.328125 -0.640625 -2.328125q-0.640625 -1.015625 -1.828125 -1.390625q-1.1875 -0.375 -4.0625 -0.375l-5.34375 0l0 8.0625zm0 12.34375l6.65625 0q1.71875 0 2.40625 -0.125q1.21875 -0.21875 2.03125 -0.71875q0.828125 -0.515625 1.359375 -1.484375q0.53125 -0.984375 0.53125 -2.265625q0 -1.484375 -0.765625 -2.59375q-0.765625 -1.109375 -2.125 -1.546875q-1.359375 -0.453125 -3.90625 -0.453125l-6.1875 0l0 9.1875z" fill-rule="nonzero"/></g></svg>